<?xml version="1.0" encoding="utf-8"?>
<!-- Generator: Adobe Illustrator 27.5.0, SVG Export Plug-In . SVG Version: 6.00 Build 0)  -->
<svg version="1.1" id="Layer_1" xmlns="http://www.w3.org/2000/svg" xmlns:xlink="http://www.w3.org/1999/xlink" x="0px" y="0px"
	 viewBox="0 0 4000 4000" style="enable-background:new 0 0 4000 4000;" xml:space="preserve">
<rect x="0.5" y="0.5" style="fill:#FFFFFF;stroke:#000000;stroke-miterlimit:10;" width="3999" height="4000"/>
<g>
	<path style="fill-rule:evenodd;clip-rule:evenodd;" d="M1814.718,1631.063c-114.538-9.392-280.546-106.913-317.144-174.007
		c-114.504,22.452-133.59,80.827-154.919,113.382c0,0-0.83,71.537,100.7,142.431c93.461,65.263,217.542,132.839,349.4,151.677
		c4.687-27.561,7.371-50.5,7.371-50.5C1855.132,1765.775,1814.718,1631.063,1814.718,1631.063"/>
	<path style="fill-rule:evenodd;clip-rule:evenodd;" d="M1859.606,1416.707c-254.778-90.904-840.487-0.062-416.241,296.171
		C1460.22,1503.982,1699.676,1452.177,1859.606,1416.707"/>
	<path style="fill-rule:evenodd;clip-rule:evenodd;" d="M2000.51,1588.965c0,0-54.448-5.052-185.792,42.098
		c0,0,40.414,134.712-14.593,182.984c0,0,76.337,74.091,87.562,167.266c0,0,6.735,93.174-49.394,135.833
		c0,0-17.961,140.323,66.234,162.776c0,0,2.141-1.772,6.406-4.71c12.312-8.486,42.325-26.695,89.576-40.036
		c47.252,13.341,77.265,31.55,89.578,40.036c4.265,2.938,6.406,4.71,6.406,4.71c84.195-22.452,66.234-162.776,66.234-162.776
		c-56.128-42.659-49.393-135.833-49.393-135.833c11.224-93.175,87.561-167.266,87.561-167.266
		c-55.006-48.271-14.595-182.984-14.595-182.984C2054.958,1583.913,2000.51,1588.965,2000.51,1588.965"/>
	<path style="fill-rule:evenodd;clip-rule:evenodd;" d="M1838.293,2117.146c56.129-42.659,49.394-135.833,49.394-135.833
		c-11.225-93.175-87.562-167.266-87.562-167.266s-2.684,22.939-7.371,50.5c-5.365,31.55-13.352,69.155-22.939,85.333
		C1769.815,1949.879,1823.699,2063.26,1838.293,2117.146"/>
	<path style="fill-rule:evenodd;clip-rule:evenodd;" d="M1646.817,1824.664c-54.243-1.777-110.693-10.995-146.797-37.047
		c0,0,80.451,194.302,269.796,162.262c9.587-16.178,17.574-53.783,22.939-85.333c4.687-27.561,7.371-50.5,7.371-50.5
		S1725.809,1827.247,1646.817,1824.664"/>
	<defs>
		<filter id="Adobe_OpacityMaskFilter" filterUnits="userSpaceOnUse" x="1870.114" y="2175.584" width="52.96" height="71.516">
			<feColorMatrix  type="matrix" values="1 0 0 0 0  0 1 0 0 0  0 0 1 0 0  0 0 0 1 0"/>
		</filter>
	</defs>
	<mask maskUnits="userSpaceOnUse" x="1870.114" y="2175.584" width="52.96" height="71.516" id="SVGID_1_">
		<g style="filter:url(#Adobe_OpacityMaskFilter);">
			
				<linearGradient id="SVGID_00000062909368999792412700000005102100282064912282_" gradientUnits="userSpaceOnUse" x1="294.0037" y1="3126.5889" x2="233.8947" y2="2994.8628" gradientTransform="matrix(1 0 0 1 1628.149 -859.2367)">
				<stop  offset="0" style="stop-color:#FFFFFF"/>
				<stop  offset="1" style="stop-color:#000000"/>
			</linearGradient>
			
				<rect x="1870.113" y="2175.584" style="fill:url(#SVGID_00000062909368999792412700000005102100282064912282_);" width="52.963" height="71.517"/>
		</g>
	</mask>
	<path style="mask:url(#SVGID_1_);fill-rule:evenodd;clip-rule:evenodd;" d="M1871.756,2175.584
		c-3.602,19.584-0.696,34.905,3.124,45.349c14.147,38.667,66.108,33.126,41.822-7.688
		C1906.7,2196.44,1888.889,2183.372,1871.756,2175.584"/>
	<defs>
		
			<filter id="Adobe_OpacityMaskFilter_00000141433741658147389230000004570530175602869691_" filterUnits="userSpaceOnUse" x="1500.019" y="1787.617" width="300.106" height="119.372">
			<feColorMatrix  type="matrix" values="1 0 0 0 0  0 1 0 0 0  0 0 1 0 0  0 0 0 1 0"/>
		</filter>
	</defs>
	
		<mask maskUnits="userSpaceOnUse" x="1500.019" y="1787.617" width="300.106" height="119.372" id="SVGID_00000005264460638746304290000011527725597959479725_">
		<g style="filter:url(#Adobe_OpacityMaskFilter_00000141433741658147389230000004570530175602869691_);">
			
				<linearGradient id="SVGID_00000015333356797368148820000008237172151799705529_" gradientUnits="userSpaceOnUse" x1="-101.9876" y1="2733.4751" x2="241.5386" y2="2798.6152" gradientTransform="matrix(1 0 0 1 1559.0052 -922.7789)">
				<stop  offset="0" style="stop-color:#FFFFFF"/>
				<stop  offset="1" style="stop-color:#000000"/>
			</linearGradient>
			
				<rect x="1500.019" y="1787.617" style="fill:url(#SVGID_00000015333356797368148820000008237172151799705529_);" width="300.107" height="119.373"/>
		</g>
	</mask>
	<path style="mask:url(#SVGID_00000005264460638746304290000011527725597959479725_);fill-rule:evenodd;clip-rule:evenodd;" d="
		M1500.019,1787.617c0,0,162.995,155.173,286.056,111.682c2.528-11.525,4.771-23.523,6.679-34.753
		c4.687-27.561,7.371-50.5,7.371-50.5s-74.317,13.201-153.309,10.617C1592.573,1822.887,1536.124,1813.668,1500.019,1787.617"/>
	<defs>
		
			<filter id="Adobe_OpacityMaskFilter_00000003099174093968172230000012563165627940936382_" filterUnits="userSpaceOnUse" x="1443.355" y="1522.215" width="116.9" height="255.123">
			<feColorMatrix  type="matrix" values="1 0 0 0 0  0 1 0 0 0  0 0 1 0 0  0 0 0 1 0"/>
		</filter>
	</defs>
	
		<mask maskUnits="userSpaceOnUse" x="1443.355" y="1522.215" width="116.9" height="255.123" id="SVGID_00000044168232628039770910000002052502307853660862_">
		<g style="filter:url(#Adobe_OpacityMaskFilter_00000003099174093968172230000012563165627940936382_);">
			
				<linearGradient id="SVGID_00000147214701237868818010000011286125394631810999_" gradientUnits="userSpaceOnUse" x1="-169.9022" y1="2815.4109" x2="85.1457" y2="2363.1226" gradientTransform="matrix(1 0 0 1 1548.4187 -947.0015)">
				<stop  offset="0" style="stop-color:#FFFFFF"/>
				<stop  offset="1" style="stop-color:#000000"/>
			</linearGradient>
			
				<rect x="1443.355" y="1522.213" style="fill:url(#SVGID_00000147214701237868818010000011286125394631810999_);" width="116.901" height="255.124"/>
		</g>
	</mask>
	<path style="mask:url(#SVGID_00000044168232628039770910000002052502307853660862_);fill-rule:evenodd;clip-rule:evenodd;" d="
		M1546.768,1777.338c-84.621-101.038,13.488-255.124,13.486-255.123c-63.349,42.751-109.802,102.816-116.9,190.654
		C1474.674,1734.739,1509.432,1756.87,1546.768,1777.338"/>
	<defs>
		
			<filter id="Adobe_OpacityMaskFilter_00000128462869812275664280000010821093404578962602_" filterUnits="userSpaceOnUse" x="1293.585" y="1382.967" width="566.021" height="214.493">
			<feColorMatrix  type="matrix" values="1 0 0 0 0  0 1 0 0 0  0 0 1 0 0  0 0 0 1 0"/>
		</filter>
	</defs>
	
		<mask maskUnits="userSpaceOnUse" x="1293.585" y="1382.967" width="566.021" height="214.493" id="SVGID_00000118360856963036312770000003364738422316215739_">
		<g style="filter:url(#Adobe_OpacityMaskFilter_00000128462869812275664280000010821093404578962602_);">
			
				<linearGradient id="SVGID_00000110454205203467164920000003195755109437038987_" gradientUnits="userSpaceOnUse" x1="406.9504" y1="2258.0222" x2="-162.0751" y2="2603.2053" gradientTransform="matrix(1 0 0 1 1520.4376 -980.6077)">
				<stop  offset="0" style="stop-color:#FFFFFF"/>
				<stop  offset="1" style="stop-color:#000000"/>
			</linearGradient>
			
				<rect x="1293.585" y="1382.966" style="fill:url(#SVGID_00000110454205203467164920000003195755109437038987_);" width="566.021" height="214.494"/>
		</g>
	</mask>
	<path style="mask:url(#SVGID_00000118360856963036312770000003364738422316215739_);fill-rule:evenodd;clip-rule:evenodd;" d="
		M1318.812,1597.46c40.932-249.566,540.794-180.753,540.794-180.753C1641.571,1338.911,1181.168,1394.223,1318.812,1597.46"/>
	<path style="fill-rule:evenodd;clip-rule:evenodd;" d="M2186.3,1631.063c114.54-9.392,280.548-106.913,317.147-174.007
		c114.504,22.452,133.59,80.827,154.918,113.382c0,0,0.831,71.537-100.699,142.431c-93.461,65.263-217.542,132.839-349.4,151.677
		c-4.688-27.561-7.372-50.5-7.372-50.5C2145.889,1765.775,2186.3,1631.063,2186.3,1631.063"/>
	<path style="fill-rule:evenodd;clip-rule:evenodd;" d="M2141.414,1416.707c254.779-90.904,840.488-0.062,416.241,296.171
		C2540.8,1503.982,2301.345,1452.177,2141.414,1416.707"/>
	<path style="fill-rule:evenodd;clip-rule:evenodd;" d="M2000.51,2235.175c47.252,13.341,77.265,31.55,89.578,40.036
		c0,0-21.547,30.362-89.578,34.425c-68.031-4.063-89.576-34.425-89.576-34.425
		C1923.246,2266.725,1953.258,2248.517,2000.51,2235.175"/>
	<path style="fill-rule:evenodd;clip-rule:evenodd;" d="M2162.727,2117.146c-56.128-42.659-49.393-135.833-49.393-135.833
		c11.224-93.175,87.561-167.266,87.561-167.266s2.684,22.939,7.372,50.5c5.365,31.55,13.351,69.155,22.939,85.333
		C2231.205,1949.879,2177.321,2063.26,2162.727,2117.146"/>
	<defs>
		
			<filter id="Adobe_OpacityMaskFilter_00000011711401674936892230000009712145062957924781_" filterUnits="userSpaceOnUse" x="1814.718" y="1588.807" width="371.582" height="130.447">
			<feColorMatrix  type="matrix" values="1 0 0 0 0  0 1 0 0 0  0 0 1 0 0  0 0 0 1 0"/>
		</filter>
	</defs>
	
		<mask maskUnits="userSpaceOnUse" x="1814.718" y="1588.807" width="371.582" height="130.447" id="SVGID_00000155834691555668558710000002414796698644515210_">
		<g style="filter:url(#Adobe_OpacityMaskFilter_00000011711401674936892230000009712145062957924781_);">
			
				<linearGradient id="SVGID_00000155841746500742533420000015245466285158328712_" gradientUnits="userSpaceOnUse" x1="382.7093" y1="2505.238" x2="382.7093" y2="2628.1853" gradientTransform="matrix(1 0 0 1 1617.7997 -957.8531)">
				<stop  offset="0" style="stop-color:#FFFFFF"/>
				<stop  offset="1" style="stop-color:#000000"/>
			</linearGradient>
			
				<rect x="1814.718" y="1588.808" style="fill:url(#SVGID_00000155841746500742533420000015245466285158328712_);" width="371.582" height="130.447"/>
		</g>
	</mask>
	<path style="mask:url(#SVGID_00000155834691555668558710000002414796698644515210_);fill-rule:evenodd;clip-rule:evenodd;" d="
		M2172.126,1719.254c0,0-34.401-64.098-171.617-107.88c-137.215,43.781-171.615,107.88-171.615,107.88
		c-1.448-45.765-14.177-88.192-14.177-88.192c131.344-47.15,185.792-42.098,185.792-42.098s54.448-5.052,185.79,42.098
		C2186.3,1631.063,2173.573,1673.489,2172.126,1719.254"/>
	<path style="fill-rule:evenodd;clip-rule:evenodd;" d="M2354.204,1824.664c54.243-1.777,110.692-10.995,146.797-37.047
		c0,0-80.451,194.302-269.795,162.262c-9.588-16.178-17.574-53.783-22.939-85.333c-4.688-27.561-7.372-50.5-7.372-50.5
		S2275.21,1827.247,2354.204,1824.664"/>
	<defs>
		
			<filter id="Adobe_OpacityMaskFilter_00000160189613107581374740000003486551487828932001_" filterUnits="userSpaceOnUse" x="1910.933" y="2235.175" width="179.154" height="52.232">
			<feColorMatrix  type="matrix" values="1 0 0 0 0  0 1 0 0 0  0 0 1 0 0  0 0 0 1 0"/>
		</filter>
	</defs>
	
		<mask maskUnits="userSpaceOnUse" x="1910.933" y="2235.175" width="179.154" height="52.232" id="SVGID_00000044174354061422717770000012346138793706868636_">
		<g style="filter:url(#Adobe_OpacityMaskFilter_00000160189613107581374740000003486551487828932001_);">
			
				<linearGradient id="SVGID_00000104673708283009877950000006189336406820852900_" gradientUnits="userSpaceOnUse" x1="364.7349" y1="3050.3149" x2="364.7349" y2="3140.719" gradientTransform="matrix(1 0 0 1 1635.7754 -851.7064)">
				<stop  offset="0" style="stop-color:#FFFFFF"/>
				<stop  offset="1" style="stop-color:#000000"/>
			</linearGradient>
			
				<rect x="1910.933" y="2235.175" style="fill:url(#SVGID_00000104673708283009877950000006189336406820852900_);" width="179.154" height="52.232"/>
		</g>
	</mask>
	<path style="mask:url(#SVGID_00000044174354061422717770000012346138793706868636_);fill-rule:evenodd;clip-rule:evenodd;" d="
		M2076.36,2287.407c-13.588-8.697-38.957-22.695-75.851-34.033c-36.893,11.338-62.262,25.337-75.85,34.033
		c-9.799-6.661-13.726-12.196-13.726-12.196c12.312-8.486,42.325-26.695,89.576-40.036c47.252,13.341,77.265,31.55,89.578,40.036
		C2090.087,2275.211,2086.16,2280.746,2076.36,2287.407"/>
	<defs>
		
			<filter id="Adobe_OpacityMaskFilter_00000034804121418956498890000003839651664660961972_" filterUnits="userSpaceOnUse" x="2077.946" y="2175.584" width="52.959" height="71.516">
			<feColorMatrix  type="matrix" values="1 0 0 0 0  0 1 0 0 0  0 0 1 0 0  0 0 0 1 0"/>
		</filter>
	</defs>
	
		<mask maskUnits="userSpaceOnUse" x="2077.946" y="2175.584" width="52.959" height="71.516" id="SVGID_00000122696798952831929020000010166927178526688430_">
		<g style="filter:url(#Adobe_OpacityMaskFilter_00000034804121418956498890000003839651664660961972_);">
			
				<linearGradient id="SVGID_00000043431111298121094410000002093349972902095767_" gradientUnits="userSpaceOnUse" x1="411.8846" y1="3126.5984" x2="471.9935" y2="2994.8726" gradientTransform="matrix(1 0 0 1 1666.9777 -859.2367)">
				<stop  offset="0" style="stop-color:#FFFFFF"/>
				<stop  offset="1" style="stop-color:#000000"/>
			</linearGradient>
			
				<rect x="2077.944" y="2175.584" style="fill:url(#SVGID_00000043431111298121094410000002093349972902095767_);" width="52.961" height="71.517"/>
		</g>
	</mask>
	<path style="mask:url(#SVGID_00000122696798952831929020000010166927178526688430_);fill-rule:evenodd;clip-rule:evenodd;" d="
		M2129.264,2175.584c3.601,19.584,0.697,34.905-3.123,45.349c-14.147,38.667-66.109,33.126-41.822-7.688
		C2094.321,2196.44,2112.131,2183.372,2129.264,2175.584"/>
	<defs>
		
			<filter id="Adobe_OpacityMaskFilter_00000178163417083458022670000009191541074672668853_" filterUnits="userSpaceOnUse" x="2200.895" y="1787.617" width="300.106" height="119.372">
			<feColorMatrix  type="matrix" values="1 0 0 0 0  0 1 0 0 0  0 0 1 0 0  0 0 0 1 0"/>
		</filter>
	</defs>
	
		<mask maskUnits="userSpaceOnUse" x="2200.895" y="1787.617" width="300.106" height="119.372" id="SVGID_00000093875755709643968060000005173934286180168352_">
		<g style="filter:url(#Adobe_OpacityMaskFilter_00000178163417083458022670000009191541074672668853_);">
			
				<linearGradient id="SVGID_00000002384053690266199860000013687297696614374316_" gradientUnits="userSpaceOnUse" x1="854.0641" y1="2733.4731" x2="510.5381" y2="2798.6135" gradientTransform="matrix(1 0 0 1 1689.9482 -922.7789)">
				<stop  offset="0" style="stop-color:#FFFFFF"/>
				<stop  offset="1" style="stop-color:#000000"/>
			</linearGradient>
			
				<rect x="2200.895" y="1787.617" style="fill:url(#SVGID_00000002384053690266199860000013687297696614374316_);" width="300.107" height="119.373"/>
		</g>
	</mask>
	<path style="mask:url(#SVGID_00000093875755709643968060000005173934286180168352_);fill-rule:evenodd;clip-rule:evenodd;" d="
		M2501.001,1787.617c0,0-162.995,155.173-286.056,111.682c-2.528-11.525-4.77-23.523-6.679-34.753
		c-4.688-27.561-7.372-50.5-7.372-50.5s74.315,13.201,153.309,10.617C2408.448,1822.887,2464.896,1813.668,2501.001,1787.617"/>
	<defs>
		
			<filter id="Adobe_OpacityMaskFilter_00000170259919686049423110000014179515970146984324_" filterUnits="userSpaceOnUse" x="2440.767" y="1522.215" width="116.9" height="255.123">
			<feColorMatrix  type="matrix" values="1 0 0 0 0  0 1 0 0 0  0 0 1 0 0  0 0 0 1 0"/>
		</filter>
	</defs>
	
		<mask maskUnits="userSpaceOnUse" x="2440.767" y="1522.215" width="116.9" height="255.123" id="SVGID_00000116193043125531628500000008864154958240331926_">
		<g style="filter:url(#Adobe_OpacityMaskFilter_00000170259919686049423110000014179515970146984324_);">
			
				<linearGradient id="SVGID_00000062163178721918573380000016640494613208852096_" gradientUnits="userSpaceOnUse" x1="887.741" y1="2815.4099" x2="632.6931" y2="2363.1216" gradientTransform="matrix(1 0 0 1 1734.7626 -947.0015)">
				<stop  offset="0" style="stop-color:#FFFFFF"/>
				<stop  offset="1" style="stop-color:#000000"/>
			</linearGradient>
			
				<rect x="2440.764" y="1522.213" style="fill:url(#SVGID_00000062163178721918573380000016640494613208852096_);" width="116.902" height="255.124"/>
		</g>
	</mask>
	<path style="mask:url(#SVGID_00000116193043125531628500000008864154958240331926_);fill-rule:evenodd;clip-rule:evenodd;" d="
		M2454.252,1777.338c84.622-101.038-13.487-255.124-13.485-255.123c63.349,42.751,109.801,102.816,116.899,190.654
		C2526.347,1734.739,2491.588,1756.87,2454.252,1777.338"/>
	<defs>
		
			<filter id="Adobe_OpacityMaskFilter_00000024684682274899622160000017317952232321016489_" filterUnits="userSpaceOnUse" x="2141.414" y="1382.967" width="566.021" height="214.493">
			<feColorMatrix  type="matrix" values="1 0 0 0 0  0 1 0 0 0  0 0 1 0 0  0 0 0 1 0"/>
		</filter>
	</defs>
	
		<mask maskUnits="userSpaceOnUse" x="2141.414" y="1382.967" width="566.021" height="214.493" id="SVGID_00000117674674301045071820000009917077510849802144_">
		<g style="filter:url(#Adobe_OpacityMaskFilter_00000024684682274899622160000017317952232321016489_);">
			
				<linearGradient id="SVGID_00000126303932016791168520000006149957722447215294_" gradientUnits="userSpaceOnUse" x1="394.7638" y1="2258.0024" x2="963.7893" y2="2603.1855" gradientTransform="matrix(1 0 0 1 1678.8356 -980.6077)">
				<stop  offset="0" style="stop-color:#FFFFFF"/>
				<stop  offset="1" style="stop-color:#000000"/>
			</linearGradient>
			
				<rect x="2141.414" y="1382.966" style="fill:url(#SVGID_00000126303932016791168520000006149957722447215294_);" width="566.021" height="214.494"/>
		</g>
	</mask>
	<path style="mask:url(#SVGID_00000117674674301045071820000009917077510849802144_);fill-rule:evenodd;clip-rule:evenodd;" d="
		M2682.208,1597.46c-40.932-249.566-540.794-180.753-540.794-180.753C2359.449,1338.911,2819.852,1394.223,2682.208,1597.46"/>
	<path style="fill:#231916;" d="M2673.253,2355.028h50.969v124.544h79.8v40.591h-130.769V2355.028z M2519.42,2355.028h50.969
		v124.544h79.8v40.591H2519.42V2355.028z M2434.776,2355.028h50.97v98.367c0,9.724-1.537,18.95-4.575,27.599
		c-3.036,8.688-7.803,16.26-14.298,22.756c-6.497,6.497-13.3,11.032-20.412,13.684c-9.917,3.652-21.833,5.497-35.71,5.497
		c-8.033,0-16.797-0.576-26.293-1.692c-9.493-1.113-17.451-3.344-23.831-6.688c-6.382-3.344-12.225-8.072-17.491-14.223
		c-5.304-6.15-8.917-12.492-10.878-19.026c-3.152-10.495-4.727-19.797-4.727-27.907v-98.367h50.969v100.711
		c0,8.994,2.498,16.03,7.457,21.064c4.998,5.075,11.916,7.612,20.757,7.612c8.726,0,15.607-2.499,20.603-7.495
		c4.96-4.96,7.457-12.032,7.457-21.18V2355.028z M2205.525,2484.645h26.024c8.803,0,14.99-1.577,18.604-4.69
		c3.613-3.113,5.42-7.264,5.42-12.531c0-4.882-1.768-8.803-5.343-11.763c-3.576-2.959-9.841-4.457-18.797-4.457h-25.909V2484.645z
		 M2205.525,2419.837h22.257c7.956,0,13.531-1.385,16.644-4.113c3.113-2.768,4.69-6.727,4.69-11.917
		c0-4.805-1.577-8.573-4.69-11.262c-3.114-2.73-8.573-4.075-16.298-4.075h-22.603V2419.837z M2154.095,2355.028h95.597
		c15.912,0,28.137,3.96,36.67,11.839c8.533,7.88,12.801,17.644,12.801,29.291c0,9.764-3.038,18.144-9.149,25.101
		c-4.036,4.69-9.994,8.342-17.797,11.07c11.876,2.845,20.564,7.727,26.177,14.684c5.573,6.958,8.38,15.684,8.38,26.177
		c0,8.572-2,16.26-5.958,23.101c-3.998,6.843-9.456,12.225-16.337,16.221c-4.306,2.461-10.764,4.268-19.411,5.382
		c-11.493,1.499-19.105,2.268-22.871,2.268h-88.102V2355.028z M1949.444,2422.144h21.564c2.307,0,6.843-0.769,13.531-2.269
		c3.382-0.654,6.15-2.384,8.264-5.189c2.153-2.807,3.229-5.998,3.229-9.61c0-5.344-1.692-9.456-5.073-12.301
		c-3.383-2.883-9.726-4.306-19.066-4.306h-22.449V2422.144z M1898.245,2520.162v-165.135h85.026c15.76,0,27.83,1.346,36.132,4.075
		c8.342,2.69,15.07,7.726,20.181,15.03c5.113,7.342,7.65,16.299,7.65,26.83c0,9.149-1.96,17.067-5.881,23.718
		c-3.882,6.688-9.264,12.07-16.144,16.221c-4.344,2.614-10.34,4.805-17.913,6.534c6.074,2.038,10.493,4.036,13.263,6.073
		c1.844,1.344,4.572,4.267,8.147,8.687c3.537,4.421,5.92,7.843,7.111,10.264l24.793,47.702h-57.658l-27.253-50.354
		c-3.459-6.535-6.534-10.763-9.224-12.723c-3.69-2.537-7.88-3.805-12.531-3.805h-4.498v66.883H1898.245z M1730.996,2355.028h136.535
		v35.287h-85.335v26.292h79.107v33.674h-79.107v32.519h87.871v37.362h-139.071V2355.028z M1615.41,2425.603h12.57
		c9.917,0,16.875-1.73,20.873-5.151c3.996-3.421,5.996-7.803,5.996-13.147c0-5.189-1.729-9.571-5.228-13.183
		c-3.46-3.614-9.994-5.421-19.603-5.421h-14.608V2425.603z M1564.21,2355.028h84.873c18.487,0,32.327,4.382,41.551,13.185
		c9.187,8.803,13.8,21.334,13.8,37.593c0,16.684-5.034,29.752-15.068,39.132c-10.032,9.417-25.37,14.107-45.973,14.107h-27.984
		v61.118h-51.2V2355.028z M1479.796,2355.028h50.971v98.367c0,9.724-1.537,18.95-4.574,27.599
		c-3.036,8.688-7.803,16.26-14.299,22.756c-6.497,6.497-13.3,11.032-20.412,13.684c-9.917,3.652-21.833,5.497-35.709,5.497
		c-8.035,0-16.798-0.576-26.293-1.692c-9.493-1.113-17.451-3.344-23.831-6.688c-6.382-3.344-12.225-8.072-17.491-14.223
		c-5.304-6.15-8.917-12.492-10.877-19.026c-3.153-10.495-4.728-19.797-4.728-27.907v-98.367h50.969v100.711
		c0,8.994,2.499,16.03,7.457,21.064c4.998,5.075,11.917,7.612,20.757,7.612c8.726,0,15.607-2.499,20.603-7.495
		c4.959-4.96,7.457-12.032,7.457-21.18V2355.028z M1197,2465.54l48.434-3.036c1.037,7.842,3.19,13.837,6.419,17.913
		c5.266,6.65,12.762,9.994,22.525,9.994c7.265,0,12.877-1.692,16.798-5.113c3.96-3.42,5.92-7.38,5.92-11.877
		c0-4.267-1.844-8.111-5.574-11.493c-3.728-3.382-12.416-6.535-26.062-9.571c-22.37-4.998-38.284-11.686-47.817-20.028
		c-9.611-8.302-14.416-18.911-14.416-31.828c0-8.455,2.461-16.451,7.381-23.986c4.921-7.573,12.301-13.491,22.179-17.797
		c9.879-4.304,23.41-6.457,40.591-6.457c21.104,0,37.172,3.921,48.241,11.802c11.072,7.841,17.644,20.334,19.758,37.477
		l-47.971,2.845c-1.268-7.495-3.96-12.954-8.034-16.335c-4.114-3.421-9.764-5.113-16.952-5.113c-5.919,0-10.417,1.268-13.415,3.767
		c-2.998,2.499-4.497,5.574-4.497,9.187c0,2.614,1.23,4.959,3.652,7.073c2.344,2.191,8.034,4.189,17.028,6.072
		c22.295,4.805,38.247,9.688,47.857,14.608c9.649,4.919,16.682,10.993,21.064,18.297c4.382,7.265,6.572,15.414,6.572,24.447
		c0,10.571-2.921,20.334-8.763,29.291c-5.881,8.917-14.03,15.721-24.563,20.334c-10.493,4.613-23.716,6.919-39.706,6.919
		c-28.062,0-47.511-5.42-58.313-16.22C1204.535,2495.908,1198.423,2482.184,1197,2465.54z"/>
	<path style="fill:#231916;" d="M2508.626,2629.055v-57.422h7.807l30.128,45.071v-45.071h7.298v57.422h-7.807l-30.128-45.072v45.072
		H2508.626z M2437.045,2605.478h19.569l-5.989-15.921c-1.804-4.839-3.168-8.835-4.116-11.99c-0.789,3.743-1.845,7.419-3.168,11.055
		L2437.045,2605.478z M2420.525,2629.055l22.028-57.422h8.354l23.377,57.422h-8.648l-6.642-17.403h-24.18l-6.228,17.403H2420.525z
		 M2362.909,2606.52v-6.737h24.301v21.279c-3.728,2.968-7.579,5.213-11.549,6.709c-3.97,1.498-8.047,2.245-12.216,2.245
		c-5.641,0-10.76-1.203-15.372-3.621c-4.598-2.406-8.087-5.908-10.427-10.466c-2.351-4.571-3.529-9.677-3.529-15.304
		c0-5.588,1.164-10.8,3.503-15.652c2.338-4.839,5.694-8.435,10.078-10.774c4.385-2.352,9.437-3.529,15.157-3.529
		c4.143,0,7.9,0.669,11.254,2.019c3.355,1.349,5.989,3.221,7.887,5.614c1.91,2.405,3.354,5.547,4.344,9.41l-6.858,1.871
		c-0.868-2.914-1.937-5.213-3.208-6.898c-1.284-1.671-3.102-3.007-5.48-4.01c-2.366-1.002-5-1.51-7.899-1.51
		c-3.462,0-6.456,0.534-8.995,1.59c-2.526,1.056-4.558,2.446-6.122,4.185c-1.551,1.723-2.754,3.622-3.61,5.68
		c-1.457,3.569-2.191,7.418-2.191,11.575c0,5.133,0.882,9.424,2.633,12.885c1.765,3.449,4.33,6.016,7.687,7.687
		c3.368,1.67,6.937,2.512,10.719,2.512c3.288,0,6.495-0.642,9.624-1.911c3.126-1.283,5.494-2.633,7.111-4.09v-10.76H2362.909z
		 M2250.799,2601.24c0,6.911,1.859,12.35,5.574,16.322c3.716,3.969,8.381,5.961,13.995,5.961c5.72,0,10.412-2.005,14.115-6.016
		c3.688-4.009,5.534-9.703,5.534-17.081c0-4.665-0.789-8.742-2.365-12.217c-1.578-3.476-3.89-6.175-6.925-8.087
		c-3.047-1.912-6.457-2.874-10.239-2.874c-5.374,0-9.999,1.844-13.875,5.533C2252.738,2586.469,2250.799,2592.619,2250.799,2601.24z
		 M2242.939,2601.106c0-9.516,2.567-16.975,7.686-22.363c5.119-5.386,11.722-8.073,19.822-8.073c5.307,0,10.078,1.27,14.343,3.796
		c4.251,2.526,7.498,6.055,9.731,10.587c2.232,4.517,3.355,9.65,3.355,15.385c0,5.814-1.176,11.026-3.53,15.611
		c-2.352,4.599-5.68,8.073-9.985,10.427c-4.316,2.365-8.969,3.541-13.954,3.541c-5.413,0-10.238-1.309-14.501-3.916
		c-4.252-2.607-7.487-6.162-9.679-10.68C2244.036,2610.917,2242.939,2606.145,2242.939,2601.106z M2171.946,2629.055v-57.422h7.619
		v50.685h28.229v6.737H2171.946z M2087.891,2610.61l7.139-0.642c0.334,2.887,1.123,5.253,2.365,7.111
		c1.243,1.843,3.168,3.341,5.775,4.491c2.607,1.135,5.548,1.71,8.808,1.71c2.901,0,5.455-0.428,7.673-1.296
		c2.22-0.869,3.863-2.059,4.946-3.569c1.081-1.511,1.631-3.156,1.631-4.919c0-1.792-0.522-3.356-1.564-4.705
		c-1.043-1.336-2.768-2.459-5.173-3.382c-1.538-0.589-4.946-1.525-10.226-2.795c-5.281-1.268-8.969-2.458-11.081-3.582
		c-2.74-1.443-4.772-3.234-6.109-5.359c-1.351-2.126-2.018-4.519-2.018-7.151c0-2.915,0.829-5.628,2.473-8.14
		c1.644-2.526,4.037-4.438,7.205-5.749c3.154-1.31,6.67-1.965,10.532-1.965c4.249,0,8.006,0.683,11.255,2.059
		c3.247,1.364,5.748,3.382,7.498,6.056c1.751,2.659,2.687,5.68,2.821,9.048l-7.298,0.562c-0.389-3.622-1.712-6.362-3.971-8.207
		c-2.259-1.859-5.6-2.781-10.011-2.781c-4.599,0-7.954,0.842-10.052,2.526c-2.098,1.685-3.155,3.718-3.155,6.096
		c0,2.057,0.748,3.755,2.232,5.092c1.47,1.323,5.28,2.701,11.455,4.09c6.175,1.403,10.413,2.621,12.712,3.663
		c3.327,1.537,5.801,3.474,7.392,5.842c1.59,2.352,2.38,5.065,2.38,8.14c0,3.061-0.87,5.92-2.621,8.621
		c-1.751,2.699-4.25,4.799-7.525,6.295c-3.275,1.498-6.951,2.245-11.054,2.245c-5.187,0-9.531-0.761-13.032-2.271
		c-3.516-1.512-6.256-3.783-8.247-6.831C2089.042,2617.881,2088,2614.446,2087.891,2610.61z M1986.369,2629.055v-57.422h41.462
		v6.737h-33.844v17.644h31.679v6.737h-31.679v19.567h35.208v6.737H1986.369z M1890.846,2629.055v-57.422h11.388l13.581,40.647
		c1.256,3.782,2.165,6.617,2.74,8.501c0.654-2.085,1.684-5.16,3.074-9.21l13.821-39.938h10.171v57.422h-7.298v-48.04l-16.761,48.04
		h-6.845l-16.574-48.921v48.921H1890.846z M1805.763,2601.24c0,6.911,1.859,12.35,5.575,16.322
		c3.716,3.969,8.381,5.961,13.995,5.961c5.719,0,10.411-2.005,14.114-6.016c3.688-4.009,5.534-9.703,5.534-17.081
		c0-4.665-0.789-8.742-2.365-12.217c-1.578-3.476-3.89-6.175-6.924-8.087c-3.047-1.912-6.457-2.874-10.239-2.874
		c-5.375,0-9.999,1.844-13.875,5.533C1807.703,2586.469,1805.763,2592.619,1805.763,2601.24z M1797.904,2601.106
		c0-9.516,2.567-16.975,7.686-22.363c5.119-5.386,11.723-8.073,19.822-8.073c5.307,0,10.079,1.27,14.342,3.796
		c4.252,2.526,7.498,6.055,9.732,10.587c2.232,4.517,3.355,9.65,3.355,15.385c0,5.814-1.176,11.026-3.53,15.611
		c-2.351,4.599-5.68,8.073-9.984,10.427c-4.317,2.365-8.969,3.541-13.955,3.541c-5.413,0-10.238-1.309-14.501-3.916
		c-4.252-2.607-7.487-6.162-9.679-10.68C1799.001,2610.917,1797.904,2606.145,1797.904,2601.106z M1715.856,2610.61l7.139-0.642
		c0.333,2.887,1.123,5.253,2.365,7.111c1.243,1.843,3.168,3.341,5.775,4.491c2.607,1.135,5.547,1.71,8.808,1.71
		c2.901,0,5.454-0.428,7.673-1.296c2.22-0.869,3.863-2.059,4.947-3.569c1.081-1.511,1.631-3.156,1.631-4.919
		c0-1.792-0.522-3.356-1.565-4.705c-1.042-1.336-2.767-2.459-5.172-3.382c-1.538-0.589-4.946-1.525-10.226-2.795
		c-5.28-1.268-8.969-2.458-11.081-3.582c-2.74-1.443-4.772-3.234-6.108-5.359c-1.351-2.126-2.018-4.519-2.018-7.151
		c0-2.915,0.828-5.628,2.472-8.14c1.645-2.526,4.037-4.438,7.206-5.749c3.154-1.31,6.67-1.965,10.532-1.965
		c4.25,0,8.007,0.683,11.255,2.059c3.247,1.364,5.747,3.382,7.498,6.056c1.752,2.659,2.688,5.68,2.821,9.048l-7.298,0.562
		c-0.388-3.622-1.711-6.362-3.971-8.207c-2.259-1.859-5.6-2.781-10.011-2.781c-4.599,0-7.953,0.842-10.051,2.526
		c-2.099,1.685-3.155,3.718-3.155,6.096c0,2.057,0.749,3.755,2.232,5.092c1.471,1.323,5.281,2.701,11.456,4.09
		c6.175,1.403,10.413,2.621,12.711,3.663c3.328,1.537,5.801,3.474,7.392,5.842c1.59,2.352,2.379,5.065,2.379,8.14
		c0,3.061-0.87,5.92-2.62,8.621c-1.751,2.699-4.25,4.799-7.526,6.295c-3.274,1.498-6.95,2.245-11.053,2.245
		c-5.187,0-9.531-0.761-13.033-2.271c-3.516-1.512-6.255-3.783-8.246-6.831C1717.006,2617.881,1715.964,2614.446,1715.856,2610.61z
		 M1636.616,2629.055v-57.422h41.462v6.737h-33.844v17.644h31.679v6.737h-31.679v19.567h35.208v6.737H1636.616z M1542.27,2629.055
		l-15.119-57.422h7.887l8.608,37.653c0.936,3.942,1.764,7.86,2.473,11.734c1.511-6.12,2.392-9.649,2.647-10.586l10.853-38.802h9.156
		l8.233,29.072c2.019,7.218,3.515,13.994,4.479,20.315c0.761-3.622,1.737-7.779,2.927-12.47l8.968-36.918h7.633l-15.72,57.422h-7.39
		l-12.044-43.749c-1.015-3.662-1.631-5.908-1.858-6.737c-0.655,2.62-1.244,4.866-1.752,6.723l-12.042,43.762H1542.27z
		 M1463.683,2605.478h19.569l-5.989-15.921c-1.804-4.839-3.168-8.835-4.116-11.99c-0.789,3.743-1.845,7.419-3.168,11.055
		L1463.683,2605.478z M1447.163,2629.055l22.027-57.422h8.354l23.378,57.422h-8.649l-6.642-17.403h-24.181l-6.229,17.403H1447.163z"
		/>
</g>
</svg>
