<?xml version="1.0" standalone="no"?>
<!DOCTYPE svg PUBLIC "-//W3C//DTD SVG 20010904//EN"
 "http://www.w3.org/TR/2001/REC-SVG-20010904/DTD/svg10.dtd">
<svg version="1.0" xmlns="http://www.w3.org/2000/svg"
 width="195.000000pt" height="72.000000pt" viewBox="0 0 195.000000 72.000000"
 preserveAspectRatio="xMidYMid meet">

<g transform="translate(0.000000,72.000000) scale(0.100000,-0.100000)"
fill="#000000" stroke="none">
<path d="M893 700 c-31 -14 -48 -29 -60 -57 -10 -21 -18 -40 -20 -42 -1 -2
-71 -16 -155 -32 -209 -39 -198 -35 -198 -64 0 -25 -1 -25 -94 -25 -85 0 -94
-2 -99 -20 -5 -18 -14 -20 -115 -20 -142 0 -142 0 -142 -129 0 -130 1 -131
148 -131 63 0 112 -4 112 -9 0 -5 44 -11 97 -13 88 -4 123 -12 347 -82 l248
-77 265 81 c258 78 266 80 368 80 63 0 105 4 105 10 0 6 41 10 103 10 135 0
137 2 137 133 0 126 -1 127 -132 127 -91 0 -100 2 -105 20 -5 18 -15 20 -117
22 l-111 3 -3 28 c-2 15 -6 27 -10 27 -9 0 -321 50 -347 55 -12 3 -27 21 -37
45 -13 31 -27 45 -60 60 -54 24 -72 24 -125 0z m144 -45 c30 -30 35 -40 29
-68 -3 -17 -2 -27 2 -20 6 9 50 5 187 -17 99 -16 183 -30 188 -30 4 0 7 -13 7
-30 l0 -30 115 0 c108 0 115 -1 115 -20 0 -19 7 -20 103 -20 67 0 107 -4 115
-12 13 -13 17 -163 6 -192 -5 -13 -25 -16 -115 -16 -66 0 -109 -4 -109 -10 0
-6 -43 -10 -110 -10 -60 0 -119 -5 -132 -11 -13 -5 -125 -41 -250 -78 l-226
-67 -233 69 c-129 39 -235 74 -237 79 -2 4 -48 8 -103 8 -59 0 -99 4 -99 10 0
6 -44 10 -113 10 -75 0 -117 4 -125 12 -16 16 -16 180 0 196 7 7 35 11 63 11
27 -1 40 -4 28 -6 -12 -2 -34 -18 -48 -34 -56 -67 -13 -169 70 -169 40 0 73
14 92 39 16 22 7 28 -14 8 -55 -49 -113 -20 -113 57 0 58 26 92 64 82 15 -3
32 -18 38 -31 16 -36 28 -31 28 11 0 25 -4 35 -12 31 -7 -2 -22 -1 -33 4 -14
5 -7 8 28 8 40 1 47 4 47 21 0 19 7 20 100 20 100 0 100 0 100 25 0 17 7 26
23 30 27 6 319 65 324 65 1 0 3 9 3 21 0 12 15 36 34 55 29 29 41 34 81 34 40
0 52 -5 82 -35z"/>
<path d="M878 650 c-24 -24 -29 -36 -24 -56 5 -19 3 -24 -5 -18 -9 5 -10 2 -6
-10 4 -10 7 -21 7 -26 0 -14 51 -70 63 -70 8 0 8 3 2 8 -13 9 -16 62 -3 62 5
0 6 6 2 13 -5 8 -2 8 9 -2 18 -14 24 -47 7 -36 -5 3 -10 -1 -10 -9 0 -22 11
-25 60 -16 40 7 43 7 25 -6 -10 -8 -14 -14 -9 -14 6 0 21 12 35 28 13 15 20
24 15 19 -5 -4 -15 6 -22 23 -8 18 -20 30 -31 29 -14 0 -15 -2 -3 -6 34 -13
38 -38 9 -54 -27 -14 -61 13 -41 33 18 18 15 33 -4 17 -13 -10 -17 -10 -25 2
-5 8 -9 20 -9 27 0 6 -11 12 -25 12 -37 0 -33 35 8 60 17 11 26 20 19 20 -8 0
-27 -14 -44 -30z"/>
<path d="M999 662 c38 -19 52 -42 26 -42 -9 0 -13 5 -10 10 3 6 0 10 -8 10
-13 0 -13 -4 -4 -25 13 -27 22 -31 32 -15 4 6 11 8 16 5 5 -4 9 -1 9 5 0 18
-57 70 -77 70 -11 0 -5 -6 16 -18z"/>
<path d="M885 620 c-3 -5 1 -10 9 -10 9 0 16 5 16 10 0 6 -4 10 -9 10 -6 0
-13 -4 -16 -10z"/>
<path d="M1128 553 c7 -3 16 -2 19 1 4 3 -2 6 -13 5 -11 0 -14 -3 -6 -6z"/>
<path d="M753 543 c9 -2 23 -2 30 0 6 3 -1 5 -18 5 -16 0 -22 -2 -12 -5z"/>
<path d="M1168 543 c6 -2 18 -2 25 0 6 3 1 5 -13 5 -14 0 -19 -2 -12 -5z"/>
<path d="M698 533 c6 -2 18 -2 25 0 6 3 1 5 -13 5 -14 0 -19 -2 -12 -5z"/>
<path d="M1228 533 c6 -2 18 -2 25 0 6 3 1 5 -13 5 -14 0 -19 -2 -12 -5z"/>
<path d="M648 523 c6 -2 18 -2 25 0 6 3 1 5 -13 5 -14 0 -19 -2 -12 -5z"/>
<path d="M1278 523 c6 -2 18 -2 25 0 6 3 1 5 -13 5 -14 0 -19 -2 -12 -5z"/>
<path d="M565 513 c-11 -2 -30 -6 -42 -9 -23 -4 -34 -44 -13 -44 6 0 10 9 10
20 0 15 7 20 28 21 34 1 88 17 57 17 -11 0 -29 -2 -40 -5z"/>
<path d="M1331 516 c2 -2 18 -6 34 -10 22 -5 26 -4 15 4 -14 9 -59 15 -49 6z"/>
<path d="M1412 504 c9 -3 19 -15 22 -27 4 -18 4 -18 3 3 -1 17 -8 25 -22 27
-14 1 -15 0 -3 -3z"/>
<path d="M943 463 c9 -2 23 -2 30 0 6 3 -1 5 -18 5 -16 0 -22 -2 -12 -5z"/>
<path d="M653 443 c186 -2 488 -2 670 0 183 1 31 2 -338 2 -369 0 -518 -1
-332 -2z"/>
<path d="M362 326 c-22 -46 -48 -89 -58 -95 -16 -8 -11 -10 29 -11 26 0 47 5
47 10 0 6 -7 10 -16 10 -11 0 -14 5 -10 16 3 9 6 18 6 20 0 2 18 4 39 4 26 0
41 -5 45 -16 9 -22 8 -24 -10 -24 -8 0 -13 -3 -11 -7 3 -5 31 -6 63 -4 43 2
54 5 41 13 -10 5 -35 45 -57 89 -22 44 -47 79 -55 79 -8 0 -31 -36 -53 -84z
m58 -18 c0 -4 -11 -8 -25 -8 -23 0 -24 2 -13 26 11 24 13 25 25 8 7 -10 13
-21 13 -26z"/>
<path d="M573 389 c25 -14 25 -124 0 -138 -30 -16 -7 -23 48 -16 40 6 48 10
36 17 -9 5 -17 21 -17 36 l0 26 38 -37 c38 -37 92 -51 107 -27 3 6 2 10 -4 10
-5 0 -24 12 -41 26 -30 26 -31 27 -10 41 25 18 26 49 1 63 -27 14 -183 13
-158 -1z m101 -5 c17 -6 23 -54 7 -54 -5 0 -16 -3 -25 -6 -13 -5 -16 1 -16 30
0 36 5 41 34 30z"/>
<path d="M828 383 c18 -12 22 -25 22 -65 0 -41 -3 -50 -22 -58 -18 -7 -11 -9
32 -9 43 0 50 2 33 9 -19 8 -23 17 -23 51 0 47 -7 49 81 -23 25 -21 51 -38 57
-38 8 0 12 20 12 60 0 54 3 62 23 70 18 7 12 9 -27 9 -43 1 -47 -1 -32 -12 12
-9 17 -23 14 -42 l-3 -28 -54 46 c-46 40 -61 47 -95 46 -40 0 -41 0 -18 -16z"/>
<path d="M1287 386 c-43 -16 -41 -14 -54 -41 -14 -27 -1 -60 33 -81 47 -31
154 -19 154 18 0 5 -10 2 -22 -6 -29 -20 -72 -20 -92 0 -19 18 -21 75 -4 92
19 19 63 14 83 -8 24 -27 35 -25 35 5 0 18 -5 25 -19 25 -10 0 -31 2 -47 5
-16 3 -46 -1 -67 -9z"/>
<path d="M1505 391 c-61 -27 -73 -97 -22 -135 42 -31 126 -29 161 3 34 32 35
79 1 111 -27 25 -104 37 -140 21z m83 -17 c24 -17 30 -70 12 -105 -14 -26 -66
-26 -80 0 -18 35 -12 88 12 105 12 9 25 16 28 16 3 0 16 -7 28 -16z"/>
<path d="M1727 382 c-32 -36 -12 -72 48 -86 43 -11 58 -25 44 -42 -18 -22 -53
-16 -79 11 -31 32 -40 32 -40 -4 0 -31 2 -31 107 -34 36 -1 73 27 73 54 0 23
-34 47 -78 55 -37 7 -53 31 -31 45 23 14 39 10 63 -16 30 -32 36 -31 36 3 0
27 -1 28 -63 30 -51 2 -67 -1 -80 -16z"/>
<path d="M1098 380 c19 -8 22 -17 22 -60 0 -38 -4 -50 -15 -50 -8 0 -15 -4
-15 -10 0 -6 26 -10 58 -10 43 1 53 3 40 11 -14 8 -18 23 -18 64 0 43 4 54 18
58 9 3 -12 5 -48 5 -48 1 -59 -2 -42 -8z"/>
<path d="M878 213 c61 -2 163 -2 225 0 61 1 11 3 -113 3 -124 0 -174 -2 -112
-3z"/>
<path d="M548 203 c34 -2 90 -2 125 0 34 2 6 3 -63 3 -69 0 -97 -1 -62 -3z"/>
<path d="M1298 203 c34 -2 90 -2 125 0 34 2 6 3 -63 3 -69 0 -97 -1 -62 -3z"/>
<path d="M358 193 c23 -2 61 -2 85 0 23 2 4 4 -43 4 -47 0 -66 -2 -42 -4z"/>
<path d="M910 185 c-19 -7 -27 -14 -18 -14 9 -1 20 -6 23 -11 4 -7 -3 -9 -22
-5 l-28 6 28 -16 c15 -9 27 -20 27 -25 0 -12 -37 -23 -51 -14 -7 4 -9 3 -6 -3
4 -6 30 -16 58 -23 44 -11 57 -10 107 8 31 11 77 26 102 33 l45 12 -35 12
c-81 28 -78 29 -74 -6 3 -24 1 -30 -11 -25 -8 3 -15 1 -15 -4 0 -6 -7 -10 -15
-10 -10 0 -15 11 -15 35 0 29 4 35 23 36 15 1 10 5 -18 14 -50 17 -62 17 -105
0z m76 -47 c2 -13 -5 -18 -22 -18 -18 0 -24 5 -24 21 0 15 5 20 22 17 11 -2
22 -11 24 -20z m4 -42 c0 -2 -7 -7 -16 -10 -8 -3 -12 -2 -9 4 6 10 25 14 25 6z"/>
<path d="M1528 193 c23 -2 61 -2 85 0 23 2 4 4 -43 4 -47 0 -66 -2 -42 -4z"/>
<path d="M510 170 c8 -5 22 -9 30 -9 10 0 8 3 -5 9 -27 12 -43 12 -25 0z"/>
<path d="M790 146 l-34 -13 47 -16 c41 -14 47 -14 47 -1 0 12 4 12 20 4 14 -7
20 -7 20 0 0 5 -7 10 -15 10 -9 0 -18 7 -21 15 -7 18 -17 18 -64 1z"/>
<path d="M1348 153 c7 -3 16 -2 19 1 4 3 -2 6 -13 5 -11 0 -14 -3 -6 -6z"/>
<path d="M598 143 c7 -3 16 -2 19 1 4 3 -2 6 -13 5 -11 0 -14 -3 -6 -6z"/>
<path d="M1278 133 c7 -3 16 -2 19 1 4 3 -2 6 -13 5 -11 0 -14 -3 -6 -6z"/>
<path d="M1185 110 c-13 -5 -14 -9 -5 -9 8 0 24 4 35 9 13 5 14 9 5 9 -8 0
-24 -4 -35 -9z"/>
<path d="M768 93 c7 -3 16 -2 19 1 4 3 -2 6 -13 5 -11 0 -14 -3 -6 -6z"/>
<path d="M1115 90 c-13 -5 -14 -9 -5 -9 8 0 24 4 35 9 13 5 14 9 5 9 -8 0 -24
-4 -35 -9z"/>
<path d="M838 73 c7 -3 16 -2 19 1 4 3 -2 6 -13 5 -11 0 -14 -3 -6 -6z"/>
<path d="M1015 60 c-13 -5 -14 -9 -5 -9 8 0 24 4 35 9 13 5 14 9 5 9 -8 0 -24
-4 -35 -9z"/>
<path d="M915 50 c19 -8 83 -14 74 -6 -2 2 -24 6 -49 9 -30 4 -38 3 -25 -3z"/>
</g>
</svg>
