<?xml version="1.0" standalone="no"?>
<!DOCTYPE svg PUBLIC "-//W3C//DTD SVG 20010904//EN"
 "http://www.w3.org/TR/2001/REC-SVG-20010904/DTD/svg10.dtd">
<svg version="1.0" xmlns="http://www.w3.org/2000/svg"
 width="254.000000pt" height="246.000000pt" viewBox="0 0 254.000000 246.000000"
 preserveAspectRatio="xMidYMid meet">

<g transform="translate(0.000000,246.000000) scale(0.100000,-0.100000)"
fill="#000000" stroke="none">
<path d="M1145 2273 c-58 -7 -75 -13 -75 -28 0 -18 12 -19 28 -3 17 17 22 7
25 -55 2 -52 4 -57 26 -57 18 0 22 4 15 18 -4 9 -9 36 -12 60 -4 42 -3 43 21
37 22 -6 25 -4 20 14 -3 12 -8 20 -12 20 -3 -1 -19 -4 -36 -6z"/>
<path d="M1235 2223 c-9 -32 -22 -64 -27 -70 -8 -10 -4 -13 15 -13 17 0 24 5
23 18 -1 12 6 17 24 17 18 0 24 -5 22 -17 -2 -13 4 -18 23 -18 23 0 35 14 17
22 -4 2 -17 28 -29 58 -28 75 -47 76 -68 3z m45 -9 c0 -8 -6 -14 -14 -14 -9 0
-12 7 -9 20 6 22 23 18 23 -6z"/>
<path d="M1424 2216 c0 -30 -6 -61 -13 -70 -8 -9 -10 -16 -5 -16 5 0 19 -3 32
-6 21 -6 22 -4 17 19 -6 24 -4 26 32 29 35 3 38 6 41 35 4 35 -9 46 -68 57
l-35 6 -1 -54z m75 15 c19 -12 6 -41 -19 -41 -15 0 -20 7 -20 25 0 26 14 31
39 16z"/>
<path d="M997 2243 c-4 -3 -3 -11 2 -17 17 -22 29 -94 18 -105 -8 -8 -3 -11
15 -11 15 0 30 5 33 10 3 6 2 10 -4 10 -10 0 -27 73 -23 103 2 17 -27 25 -41
10z"/>
<path d="M1558 2175 c-24 -30 -47 -55 -53 -55 -14 0 17 -20 33 -20 6 0 12 7
12 15 0 17 18 19 39 6 8 -5 10 -14 6 -21 -7 -11 10 -29 28 -30 4 0 7 33 7 74
0 98 -15 104 -72 31z m39 -32 c-3 -3 -11 -2 -17 2 -8 5 -7 11 2 22 12 15 13
14 16 -1 2 -10 1 -20 -1 -23z"/>
<path d="M873 2204 c-31 -13 -45 -34 -23 -34 14 0 42 -72 36 -93 -4 -16 0 -18
22 -12 36 9 40 15 19 26 -9 6 -17 16 -17 23 0 23 30 27 47 6 18 -21 43 -27 43
-11 0 5 -10 18 -23 28 -13 11 -21 26 -19 37 4 19 -22 47 -42 45 -6 0 -26 -7
-43 -15z m54 -38 c-9 -23 -37 -20 -37 3 0 21 20 33 34 20 5 -4 6 -15 3 -23z"/>
<path d="M1705 2171 c9 -15 -37 -101 -54 -101 -13 -1 -12 -4 3 -15 24 -18 47
-20 41 -2 -7 19 10 38 29 31 13 -5 15 -14 10 -40 -5 -27 -3 -34 10 -34 15 0
21 22 17 56 -1 7 5 14 14 18 28 10 18 55 -17 76 -35 21 -63 27 -53 11z m65
-52 c0 -14 -30 -23 -41 -12 -5 5 -7 17 -3 26 5 13 10 14 25 6 10 -5 19 -14 19
-20z"/>
<path d="M752 2144 c-39 -23 -54 -44 -33 -44 14 0 55 -71 54 -92 -2 -16 3 -15
45 9 26 14 48 27 50 28 1 1 0 10 -4 19 -7 19 -24 22 -24 3 0 -7 -9 -18 -20
-24 -16 -11 -21 -10 -30 7 -8 15 -6 21 10 30 11 6 18 15 15 21 -4 5 -14 5 -27
-2 -16 -9 -23 -8 -29 2 -10 16 18 42 38 35 18 -7 25 10 10 22 -9 8 -24 4 -55
-14z"/>
<path d="M1842 2098 c3 -18 -52 -99 -63 -92 -5 3 -9 1 -9 -3 0 -14 23 -33 39
-33 8 0 11 3 8 6 -3 4 -2 16 4 26 15 28 34 7 34 -37 0 -19 4 -33 10 -32 10 2
13 8 17 42 2 11 11 23 21 27 29 12 21 53 -17 82 -39 29 -48 32 -44 14z m54
-67 c-9 -14 -33 -14 -41 -1 -4 6 -1 18 6 26 11 13 14 13 27 0 8 -8 11 -19 8
-25z"/>
<path d="M608 2047 c-29 -24 -35 -37 -17 -37 14 0 47 -38 63 -73 l13 -29 36
35 c44 41 45 55 11 96 -31 37 -67 40 -106 8z m79 -19 c26 -24 30 -50 10 -67
-19 -15 -82 60 -64 78 16 16 28 14 54 -11z"/>
<path d="M1130 2044 c-319 -63 -571 -291 -656 -595 l-17 -60 -186 1 c-274 1
-261 2 -261 -15 0 -13 36 -15 265 -15 229 0 265 2 265 15 0 10 -10 15 -30 15
-36 0 -36 -1 -9 81 43 131 112 241 211 335 112 107 226 169 377 206 122 29
311 22 424 -16 146 -49 238 -107 343 -218 84 -89 135 -170 175 -278 37 -102
37 -110 -1 -110 -20 0 -30 -5 -30 -15 0 -13 36 -15 265 -15 229 0 265 2 265
15 0 17 15 16 -256 15 l-190 -1 -13 53 c-54 213 -220 417 -427 521 -126 63
-193 79 -349 82 -77 2 -151 1 -165 -1z"/>
<path d="M1965 2001 c7 -13 -53 -81 -71 -81 -20 0 -17 -14 6 -35 12 -11 20
-13 20 -6 0 19 62 91 78 91 12 0 12 4 -3 20 -18 20 -41 28 -30 11z"/>
<path d="M537 1982 c-20 -22 -22 -32 -4 -32 8 0 24 -11 36 -24 l23 -25 -56 13
c-51 12 -57 12 -72 -5 -14 -15 -14 -19 -3 -19 21 0 89 -59 89 -77 0 -14 3 -14
20 2 19 17 29 41 12 32 -4 -3 -21 6 -37 19 -26 21 -27 24 -10 24 11 0 36 -4
55 -10 55 -16 60 3 13 53 -22 23 -42 48 -45 55 -2 10 -8 9 -21 -6z"/>
<path d="M2025 1941 c6 -11 -63 -71 -82 -71 -19 0 -16 -7 19 -50 24 -29 36
-36 45 -28 17 14 16 28 -1 28 -7 0 -19 6 -25 13 -8 11 -2 21 29 45 21 18 44
32 51 32 7 0 5 8 -6 20 -18 20 -41 28 -30 11z"/>
<path d="M2114 1837 c-7 -20 -74 -63 -91 -59 -19 4 -16 -9 13 -51 24 -36 43
-44 51 -20 2 6 -5 13 -17 16 -11 3 -20 10 -20 16 0 16 77 64 89 56 16 -9 13
17 -4 39 -13 17 -15 17 -21 3z"/>
<path d="M393 1809 c-9 -9 -3 -23 27 -61 21 -27 41 -54 44 -61 3 -8 10 -6 21
8 14 18 14 20 1 23 -21 4 -20 26 0 43 13 10 17 10 25 -2 8 -12 10 -12 19 1 16
24 13 26 -47 40 -32 7 -63 14 -68 16 -6 3 -16 -1 -22 -7z m59 -27 c11 -4 14
-12 9 -20 -6 -9 -12 -8 -26 8 -18 20 -13 24 17 12z"/>
<path d="M1304 1801 c5 -7 15 -10 24 -6 8 3 40 -2 70 -10 58 -17 78 -14 42 5
-33 18 -145 27 -136 11z"/>
<path d="M1243 1793 c-13 -2 -23 -9 -23 -14 0 -14 63 -5 68 9 4 12 -4 13 -45
5z"/>
<path d="M1120 1779 c0 -5 -15 -9 -32 -10 -47 -1 -105 -23 -89 -33 7 -5 16 -5
20 0 3 5 24 10 46 12 22 2 45 8 51 13 8 7 14 6 19 -1 3 -5 18 -8 32 -6 48 9
41 19 -19 29 -16 2 -28 0 -28 -4z"/>
<path d="M1480 1774 c0 -15 24 -64 32 -64 20 0 17 25 -6 48 -14 15 -26 22 -26
16z"/>
<path d="M1333 1723 c-15 -5 -18 -33 -4 -33 8 0 25 30 19 35 -2 1 -9 0 -15 -2z"/>
<path d="M1535 1717 c-8 -18 6 -60 38 -114 18 -31 20 -32 41 -18 31 20 181 24
199 6 10 -11 7 -12 -18 -7 -29 6 -29 6 -10 -10 20 -16 19 -16 -5 -9 -22 7 -23
6 -11 -8 12 -15 8 -16 -40 -13 -30 2 -67 8 -83 15 -16 6 -31 9 -34 7 -3 -3 3
-8 12 -12 9 -3 13 -10 10 -15 -3 -5 1 -6 9 -3 14 5 32 -55 40 -136 2 -19 7
-42 11 -51 5 -12 1 -18 -18 -21 -28 -6 -33 1 -14 20 6 6 9 14 6 18 -4 3 -14
-6 -23 -20 -31 -46 1 -102 35 -61 7 8 21 15 31 15 11 0 19 7 19 15 0 8 7 15
15 15 20 0 19 9 -2 34 -18 21 -18 21 3 4 22 -19 44 -24 44 -9 0 5 15 12 34 15
19 4 39 13 46 21 10 13 8 15 -11 16 -21 1 -20 2 7 11 21 7 36 21 47 45 15 35
15 37 -10 69 -15 20 -34 34 -47 34 -17 0 -18 2 -6 10 12 7 7 12 -22 25 -21 8
-44 15 -52 15 -8 0 -28 11 -44 25 -40 33 -93 55 -136 55 -23 0 -38 6 -45 18
-9 16 -10 16 -16 -1z m146 -68 c5 -10 7 -19 3 -19 -16 0 -114 34 -114 39 0 3
23 4 50 3 37 -3 53 -9 61 -23z"/>
<path d="M1357 1713 c-4 -3 -7 -16 -7 -27 1 -20 2 -20 14 -3 7 9 18 17 25 17
6 0 11 5 11 10 0 11 -33 14 -43 3z"/>
<path d="M342 1703 c-11 -4 -52 -73 -52 -88 0 -4 6 -5 13 -2 13 5 88 -30 98
-46 11 -16 28 2 40 43 14 46 7 70 -21 70 -11 0 -31 6 -43 14 -12 7 -28 12 -35
9z m25 -39 c8 -21 -13 -42 -28 -27 -13 13 -5 43 11 43 6 0 13 -7 17 -16z m58
-14 c12 -20 -5 -48 -25 -43 -23 6 -26 23 -8 41 15 15 25 15 33 2z"/>
<path d="M1110 1683 c0 -13 9 -27 21 -33 30 -17 31 -8 4 25 -23 28 -24 29 -25
8z"/>
<path d="M1260 1692 c0 -5 7 -15 15 -22 8 -7 15 -8 15 -2 0 5 -7 15 -15 22 -8
7 -15 8 -15 2z"/>
<path d="M935 1670 c-16 -18 -16 -20 -2 -20 9 0 21 9 27 20 6 11 7 20 2 20 -5
0 -17 -9 -27 -20z"/>
<path d="M2144 1682 c-66 -3 -71 -4 -67 -23 4 -14 11 -18 25 -13 13 4 24 1 29
-7 13 -21 11 -39 -6 -39 -17 0 -19 -9 -7 -28 6 -9 23 1 60 35 49 45 62 68 45
75 -5 2 -40 2 -79 0z m36 -37 c-7 -8 -16 -15 -21 -15 -5 0 -9 7 -9 15 0 9 9
15 21 15 18 0 19 -2 9 -15z"/>
<path d="M1476 1655 c4 -8 10 -12 15 -9 14 8 10 24 -6 24 -9 0 -12 -6 -9 -15z"/>
<path d="M854 1619 c-38 -12 -78 -33 -105 -58 -25 -22 -64 -44 -87 -50 -39
-11 -78 -38 -68 -48 2 -3 26 5 51 16 61 27 42 1 -21 -29 -24 -12 -44 -28 -44
-35 0 -7 -3 -21 -7 -31 -4 -12 -3 -15 5 -10 17 10 15 -11 -4 -40 -14 -21 -16
-41 -11 -117 15 -223 112 -417 277 -553 62 -52 90 -65 90 -43 0 5 5 7 10 4 6
-3 10 1 10 9 0 9 8 16 19 16 21 0 36 47 21 66 -5 5 -7 19 -4 31 4 15 -2 27
-24 43 -17 13 -28 28 -25 36 3 7 -9 20 -27 29 -18 9 -29 19 -26 22 3 3 13 0
22 -8 16 -13 17 -10 10 31 -6 42 -6 44 8 25 9 -11 16 -28 16 -37 0 -10 7 -18
16 -18 8 0 13 -4 10 -9 -8 -13 31 -44 45 -35 9 5 11 -8 6 -54 -5 -58 -3 -63
20 -82 28 -22 43 -18 43 11 0 11 -4 17 -10 14 -17 -10 -50 19 -40 35 8 13 11
13 22 -1 19 -24 41 -28 55 -10 11 15 12 14 13 -1 0 -9 -11 -30 -25 -46 -22
-26 -24 -35 -16 -73 15 -78 27 -97 68 -108 51 -14 83 -14 84 2 0 6 15 32 33
57 23 31 39 44 52 41 17 -3 58 -3 139 0 14 0 46 0 73 -1 26 -1 57 1 69 4 30 7
83 35 83 45 0 5 20 16 43 25 29 11 48 26 57 44 7 15 16 35 21 44 6 11 2 33
-11 63 -15 34 -17 51 -10 71 14 36 2 75 -33 106 -16 14 -36 41 -43 60 -41 109
-45 124 -39 155 5 27 3 32 -10 27 -8 -3 -12 -10 -9 -15 3 -5 0 -9 -6 -9 -7 0
-9 -8 -5 -20 6 -20 -9 -28 -19 -11 -3 5 -19 8 -36 7 -21 -2 -30 2 -30 13 0 14
-1 14 -10 1 -8 -12 -13 -13 -30 -2 -12 7 -20 8 -20 2 0 -5 -7 -10 -16 -10 -9
0 -39 -8 -68 -17 -38 -14 -69 -36 -123 -90 -40 -40 -73 -79 -73 -88 0 -8 -6
-15 -14 -15 -8 0 -22 -10 -30 -22 -13 -18 -16 -19 -16 -6 0 9 5 20 10 23 8 5
8 11 0 20 -6 7 -10 17 -9 21 3 21 -2 35 -11 29 -10 -6 -26 41 -21 64 1 9 -3
12 -13 8 -23 -9 -118 114 -102 131 3 3 6 1 6 -4 0 -6 7 -19 16 -30 15 -18 15
-18 9 9 -6 28 17 110 37 134 19 23 1 26 -50 9 -27 -9 -56 -14 -66 -10 -9 3
-28 -2 -43 -11 -22 -15 -25 -15 -20 -2 3 8 3 18 -1 22 -4 3 -7 14 -7 23 0 24
-70 24 -100 0 -13 -10 -32 -18 -43 -18 -12 0 -24 -5 -27 -10 -4 -6 -10 -8 -15
-5 -5 3 -16 -5 -24 -17 -9 -12 -18 -19 -21 -16 -10 10 46 68 91 94 48 28 114
33 194 15 56 -13 80 -14 80 -2 0 5 -8 11 -19 14 -16 4 -17 11 -11 51 8 54 4
56 -80 53 -62 -3 -66 -5 -184 -118 -78 -75 -80 -78 -87 -135 -3 -33 -3 -65 1
-73 10 -20 0 -51 -16 -51 -23 0 -26 22 -11 94 8 37 10 69 5 72 -12 8 -10 48 4
62 7 7 20 12 29 12 10 0 32 19 50 43 19 23 39 46 46 50 8 5 11 12 9 16 -11 17
163 95 189 85 7 -3 16 -1 20 5 10 17 -41 12 -111 -10z m51 -69 c-27 -12 -43
-12 -25 0 8 5 22 9 30 9 10 0 8 -3 -5 -9z m-237 -285 c-6 -14 -13 -23 -15 -21
-5 5 15 46 22 46 3 0 -1 -11 -7 -25z m77 15 c3 -5 3 -15 -1 -21 -6 -11 -23 6
-24 24 0 10 18 9 25 -3z m139 -69 c-21 -21 -29 -19 -21 4 4 8 14 15 23 15 16
0 16 -2 -2 -19z m144 -108 c28 -38 64 -81 81 -97 22 -22 31 -39 31 -63 0 -22
9 -42 28 -61 15 -16 33 -38 40 -48 7 -10 10 -13 7 -7 -4 8 -1 11 8 7 15 -5 29
21 46 83 7 27 20 44 43 58 18 10 55 36 82 56 36 27 64 39 100 44 28 4 68 11
88 17 36 11 38 10 105 -52 37 -34 69 -70 69 -81 1 -10 -3 -16 -7 -13 -5 3 -14
-7 -20 -23 -6 -15 -16 -35 -24 -43 -7 -8 -15 -28 -18 -45 -4 -27 -4 -26 -6 8
-1 44 -13 48 -30 10 -38 -81 -47 -97 -63 -101 -10 -2 -15 -8 -12 -13 3 -5 15
-3 27 4 14 8 35 11 57 7 l35 -6 -50 -8 c-27 -4 -66 -16 -87 -27 -20 -10 -48
-19 -62 -19 -13 0 -31 -7 -39 -15 -8 -8 -18 -11 -21 -7 -4 3 -4 -1 -1 -10 6
-15 -18 -48 -35 -48 -13 0 -40 30 -40 45 0 7 7 20 15 29 17 16 20 56 5 56 -5
0 -10 -5 -10 -12 0 -6 -3 -9 -6 -5 -4 3 -3 14 1 24 5 10 9 24 9 30 1 7 5 12
10 12 11 -1 30 30 23 38 -10 9 -28 -9 -58 -55 -31 -49 -39 -50 -14 -2 14 27
14 29 0 23 -9 -3 -23 -23 -32 -44 -16 -41 -27 -43 -36 -9 -4 17 -3 19 9 9 11
-9 16 -6 24 16 13 34 13 35 -5 35 -8 0 -18 12 -21 26 -6 23 -8 24 -16 10 -6
-12 -5 -23 3 -34 11 -14 11 -15 -1 -4 -19 16 -37 15 -44 -3 -8 -21 3 -43 22
-48 15 -4 15 -5 0 -6 -20 -1 -42 34 -34 54 6 18 -29 49 -49 42 -21 -9 -19 -43
6 -68 11 -11 19 -22 17 -24 -7 -6 -48 15 -48 25 0 14 -28 13 -33 -2 -2 -7 -3
-6 -2 3 3 21 -26 58 -32 42 -9 -26 -22 -12 -16 17 3 19 1 30 -6 30 -6 0 -20
15 -31 33 -19 31 -20 31 -21 7 l-1 -25 -11 26 c-7 14 -18 33 -26 43 -16 19
-16 19 27 7 31 -9 32 -9 26 17 -6 25 -4 24 21 -10 31 -42 48 -42 35 0 -5 15
-13 43 -18 62 l-10 35 -1 -30 -1 -29 -31 33 c-31 35 -33 54 -2 30 10 -8 5 3
-10 23 -20 28 -26 44 -21 63 3 14 8 25 9 25 2 0 26 -30 53 -67z m372 57 c0
-13 -28 -25 -38 -16 -3 4 0 11 8 16 20 13 30 12 30 0z m30 -30 c0 -5 -10 -14
-21 -21 -17 -9 -23 -8 -30 2 -5 9 -1 18 14 26 22 12 37 9 37 -7z m27 -36 c4
-12 -45 -29 -55 -20 -2 3 1 13 8 21 14 17 41 17 47 -1z m-242 -142 c29 -23 19
-42 -18 -35 -26 5 -37 30 -20 46 9 10 12 9 38 -11z m540 -102 c4 -6 4 -29 0
-52 -9 -49 -25 -33 -25 25 0 36 12 48 25 27z m-110 -164 c-30 -20 -78 -30 -73
-14 5 13 38 25 73 27 19 1 19 1 0 -13z m-506 -116 c6 -18 6 -30 0 -30 -5 0 -9
7 -9 16 0 8 -4 12 -10 9 -5 -3 -10 3 -10 14 0 31 17 25 29 -9z"/>
<path d="M970 1135 c0 -5 5 -17 10 -25 5 -8 10 -10 10 -5 0 6 -5 17 -10 25 -5
8 -10 11 -10 5z"/>
<path d="M1515 1000 c3 -5 0 -10 -8 -10 -17 0 -57 -54 -57 -78 0 -38 13 -84
20 -72 4 7 4 27 0 45 -5 24 -3 40 7 55 13 19 21 21 62 15 69 -10 130 -8 146 5
8 7 26 10 40 8 35 -7 31 8 -7 26 -37 17 -75 15 -70 -5 2 -10 0 -9 -13 1 -13
11 -18 11 -25 1 -5 -9 -9 -10 -14 -2 -4 6 -12 9 -17 6 -5 -4 -15 -3 -21 2 -20
12 -50 14 -43 3z"/>
<path d="M1060 992 c0 -5 9 -12 21 -15 13 -3 19 -1 16 6 -5 15 -37 22 -37 9z"/>
<path d="M1374 958 c-3 -4 -13 -8 -23 -8 -17 0 -51 -29 -51 -43 0 -3 12 1 28
9 15 8 39 19 55 24 15 5 27 13 27 18 0 11 -29 11 -36 0z"/>
<path d="M1085 919 c-18 -34 -15 -40 33 -59 43 -17 54 -4 19 22 -19 14 -26 26
-22 38 10 32 -14 32 -30 -1z"/>
<path d="M1505 930 c-4 -6 4 -29 17 -53 24 -43 57 -58 87 -38 23 15 5 60 -27
67 -15 4 -37 13 -49 20 -14 9 -24 10 -28 4z"/>
<path d="M1640 921 c0 -6 5 -13 10 -16 6 -3 10 1 10 9 0 9 -4 16 -10 16 -5 0
-10 -4 -10 -9z"/>
<path d="M1368 903 c-9 -10 -19 -28 -22 -40 -6 -18 -4 -22 8 -17 8 3 18 13 22
22 9 21 15 52 10 52 -1 0 -10 -8 -18 -17z"/>
<path d="M1300 871 c0 -11 -4 -23 -10 -26 -5 -3 -10 -12 -10 -18 0 -8 3 -7 9
2 7 11 10 10 14 -5 3 -14 5 -12 5 6 -1 14 3 33 7 43 4 10 3 17 -4 17 -6 0 -11
-9 -11 -19z"/>
<path d="M1017 1626 c-3 -8 -2 -18 3 -21 13 -8 20 9 11 24 -6 10 -10 9 -14 -3z"/>
<path d="M1206 1614 c-9 -22 -8 -26 6 -22 13 5 20 38 8 38 -4 0 -11 -7 -14
-16z"/>
<path d="M1330 1605 c0 -17 2 -18 24 -9 18 7 12 24 -10 24 -8 0 -14 -7 -14
-15z"/>
<path d="M1421 1598 c10 -20 10 -21 -2 -11 -12 9 -14 5 -17 -25 l-2 -35 20 23
c11 13 20 27 20 31 0 16 -13 39 -21 39 -6 0 -4 -10 2 -22z"/>
<path d="M950 1596 c0 -10 8 -16 22 -16 12 0 19 1 17 3 -2 1 -12 9 -21 16 -15
12 -18 11 -18 -3z"/>
<path d="M1496 1594 c-3 -9 -6 -23 -6 -31 0 -13 3 -13 15 -3 17 14 20 36 6 44
-5 3 -12 -1 -15 -10z"/>
<path d="M1545 1580 c3 -5 8 -10 11 -10 2 0 4 5 4 10 0 6 -5 10 -11 10 -5 0
-7 -4 -4 -10z"/>
<path d="M1330 1547 c0 -10 8 -17 18 -17 9 0 13 4 7 8 -5 4 -13 11 -17 16 -5
5 -8 2 -8 -7z"/>
<path d="M1540 1513 c0 -9 3 -13 7 -10 3 4 12 2 20 -4 16 -14 17 3 1 19 -17
17 -28 15 -28 -5z"/>
<path d="M1100 1513 c1 -16 28 -44 34 -34 3 5 -1 17 -10 25 -17 18 -24 20 -24
9z"/>
<path d="M326 1502 c-3 -6 -1 -14 5 -17 15 -10 25 3 12 16 -7 7 -13 7 -17 1z"/>
<path d="M2200 1495 c0 -9 5 -15 11 -13 6 2 11 8 11 13 0 5 -5 11 -11 13 -6 2
-11 -4 -11 -13z"/>
<path d="M1177 1477 c-3 -9 1 -18 9 -21 16 -6 18 2 5 22 -7 11 -9 11 -14 -1z"/>
<path d="M1628 1483 c7 -3 16 -2 19 1 4 3 -2 6 -13 5 -11 0 -14 -3 -6 -6z"/>
<path d="M1300 1463 c0 -13 -3 -13 -17 -3 -10 7 -5 0 11 -15 28 -25 30 -26 37
-9 6 16 8 15 14 -8 4 -16 11 -28 15 -28 8 0 -4 57 -13 67 -3 2 -14 5 -26 8
-14 3 -21 -1 -21 -12z"/>
<path d="M1060 1460 c0 -5 7 -10 15 -10 8 0 15 5 15 10 0 6 -7 10 -15 10 -8 0
-15 -4 -15 -10z"/>
<path d="M1544 1443 c-3 -16 -10 -41 -15 -57 -12 -38 -12 -59 1 -51 10 6 30
72 35 113 3 32 -13 27 -21 -5z"/>
<path d="M1270 1396 c0 -4 11 -11 25 -16 14 -5 25 -15 25 -22 0 -12 44 -47 46
-37 0 2 8 -2 17 -10 10 -7 17 -10 17 -7 0 10 -51 56 -61 56 -5 0 -9 7 -9 15 0
8 -6 15 -14 15 -8 0 -21 3 -30 6 -9 3 -16 3 -16 0z"/>
<path d="M1587 1360 c-9 -25 -17 -55 -17 -65 1 -11 10 3 21 30 10 28 18 57 16
65 -1 8 -10 -5 -20 -30z"/>
<path d="M1442 1361 c2 -7 7 -12 11 -12 12 1 9 15 -3 20 -7 2 -11 -2 -8 -8z"/>
<path d="M1190 1329 c0 -5 8 -12 18 -16 20 -7 61 -53 62 -69 0 -5 7 -19 16
-30 15 -18 15 -18 9 11 -11 55 -37 92 -72 103 -20 6 -33 6 -33 1z"/>
<path d="M1410 1322 c0 -12 19 -26 26 -19 2 2 -2 10 -11 17 -9 8 -15 8 -15 2z"/>
<path d="M1114 1312 c-22 -14 -30 -71 -10 -64 5 2 25 -5 43 -15 28 -15 37 -16
54 -5 11 7 24 10 29 7 13 -8 13 -1 -2 30 -12 27 -38 32 -82 15 -15 -5 -28 -6
-31 0 -7 12 33 33 51 26 8 -3 14 -1 14 4 0 12 -50 13 -66 2z"/>
<path d="M207 1288 c-23 -12 -21 -44 3 -65 11 -10 20 -27 20 -38 -1 -20 -1
-20 -15 -1 -17 23 -34 13 -19 -11 15 -24 29 -26 48 -8 22 22 20 32 -10 62 -17
17 -23 31 -18 42 6 14 7 14 11 -1 3 -10 10 -18 18 -18 16 0 9 36 -9 43 -7 3
-20 1 -29 -5z"/>
<path d="M2135 1284 c-8 -9 -15 -20 -15 -25 0 -15 17 -10 24 8 5 11 10 13 17
6 7 -7 3 -25 -12 -56 -13 -26 -20 -49 -17 -53 3 -3 19 -4 35 -1 26 4 27 5 6
12 l-22 7 19 38 c11 22 17 46 14 54 -8 22 -32 27 -49 10z"/>
<path d="M2223 1293 c-9 -3 -13 -26 -13 -68 0 -49 4 -64 16 -69 29 -11 44 13
44 70 0 54 -17 78 -47 67z m27 -68 c0 -24 -4 -47 -10 -50 -6 -4 -10 15 -10 50
0 35 4 54 10 50 6 -3 10 -26 10 -50z"/>
<path d="M2363 1293 c-9 -3 -13 -26 -13 -68 0 -49 4 -64 16 -69 29 -11 42 12
42 70 -1 55 -16 78 -45 67z m27 -39 c0 -8 -4 -14 -10 -14 -5 0 -10 9 -10 21 0
11 5 17 10 14 6 -3 10 -13 10 -21z m0 -53 c0 -11 -4 -23 -10 -26 -6 -4 -10 5
-10 19 0 14 5 26 10 26 6 0 10 -9 10 -19z"/>
<path d="M110 1225 c0 -63 1 -65 25 -65 14 0 25 5 25 10 0 6 -7 10 -15 10 -8
0 -15 7 -15 15 0 8 7 15 15 15 8 0 15 5 15 10 0 6 -7 10 -15 10 -8 0 -15 9
-15 20 0 11 7 20 15 20 8 0 15 5 15 10 0 6 -11 10 -25 10 -24 0 -25 -2 -25
-65z"/>
<path d="M283 1276 c12 -10 17 -27 17 -65 0 -28 5 -51 10 -51 6 0 10 25 10 55
0 30 5 55 10 55 6 0 10 5 10 10 0 6 -17 10 -37 10 -34 -1 -36 -2 -20 -14z"/>
<path d="M360 1225 l0 -66 33 3 32 3 0 60 0 60 -32 3 -33 3 0 -66z m50 25 c0
-11 -7 -20 -15 -20 -8 0 -15 9 -15 20 0 11 7 20 15 20 8 0 15 -9 15 -20z m0
-55 c0 -8 -7 -15 -15 -15 -8 0 -15 7 -15 15 0 8 7 15 15 15 8 0 15 -7 15 -15z"/>
<path d="M2297 1283 c-7 -15 5 -123 14 -123 5 0 9 29 9 65 0 56 -10 82 -23 58z"/>
<path d="M1345 1270 c-4 -6 -3 -16 3 -22 6 -6 12 -6 17 2 4 6 3 16 -3 22 -6 6
-12 6 -17 -2z"/>
<path d="M1365 1240 c-8 -13 3 -50 16 -50 12 0 12 47 0 55 -5 3 -12 1 -16 -5z"/>
<path d="M1125 1219 c10 -15 43 -30 49 -21 3 4 -8 13 -25 19 -16 6 -27 7 -24
2z"/>
<path d="M1070 1196 c0 -9 5 -16 10 -16 6 0 10 4 10 9 0 6 -4 13 -10 16 -5 3
-10 -1 -10 -9z"/>
<path d="M1205 1183 c-11 -3 -24 -9 -30 -13 -5 -4 -23 -6 -40 -4 -28 3 -29 2
-11 -12 22 -15 48 -18 60 -6 4 4 11 7 15 7 4 0 15 8 25 18 18 17 16 18 -19 10z"/>
<path d="M1130 1121 c0 -20 64 -29 76 -10 4 7 0 9 -14 5 -12 -4 -30 -2 -42 4
-11 6 -20 7 -20 1z"/>
<path d="M10 1075 c0 -13 32 -15 224 -15 l223 0 17 -60 c82 -291 315 -512 613
-581 123 -28 310 -23 418 11 278 88 484 296 561 565 l19 65 222 0 c192 0 223
2 223 15 0 13 -36 15 -265 15 -229 0 -265 -2 -265 -15 0 -10 10 -15 30 -15 38
0 38 -8 1 -110 -40 -108 -91 -189 -175 -278 -156 -164 -321 -240 -543 -249
-134 -6 -204 3 -318 43 -226 79 -416 276 -494 513 -27 82 -27 81 9 81 20 0 30
5 30 15 0 13 -36 15 -265 15 -229 0 -265 -2 -265 -15z"/>
<path d="M2166 944 c-5 -12 5 -30 36 -61 l42 -43 -61 0 c-46 0 -62 -4 -67 -16
-8 -22 -8 -26 4 -19 13 8 110 -25 110 -38 0 -4 5 -5 10 -2 6 3 10 13 10 21 0
8 -4 13 -9 10 -5 -3 -26 2 -47 12 l-39 17 59 3 59 3 -44 45 -44 46 40 -17 c22
-9 42 -20 43 -25 6 -17 19 -11 25 10 3 11 1 18 -3 15 -10 -6 -102 32 -111 46
-4 6 -9 3 -13 -7z"/>
<path d="M286 919 c-40 -32 -29 -100 17 -98 l22 0 -22 9 c-12 5 -24 19 -28 31
-16 48 81 83 105 38 9 -15 8 -24 -1 -35 -9 -11 -8 -14 5 -14 23 0 21 45 -4 70
-26 26 -60 25 -94 -1z"/>
<path d="M2089 769 c-8 -16 -8 -20 1 -14 16 10 90 -42 90 -64 0 -10 -7 -24
-15 -31 -12 -10 -21 -8 -50 10 -19 12 -39 29 -45 38 -8 15 -11 15 -20 2 -12
-18 -13 -33 -2 -26 5 3 25 -6 45 -19 46 -32 72 -32 93 0 20 31 12 56 -26 78
-16 10 -36 24 -44 33 -13 13 -16 12 -27 -7z"/>
<path d="M300 770 c0 -3 5 -12 10 -20 6 -10 10 -11 10 -2 0 22 30 13 42 -14
10 -22 10 -28 -3 -38 -9 -6 -14 -16 -12 -22 4 -11 103 86 103 100 0 4 -34 6
-75 4 -41 -2 -75 -5 -75 -8z m120 -8 c0 -5 -9 -17 -20 -27 -11 -10 -20 -16
-20 -12 0 3 -3 12 -6 20 -3 10 2 17 13 20 29 8 33 7 33 -1z"/>
<path d="M450 672 c-19 -19 -42 -37 -52 -41 -17 -6 -17 -9 -4 -26 14 -18 15
-18 16 -3 0 10 9 22 20 28 15 8 21 6 30 -11 9 -16 8 -24 -4 -38 -24 -27 -21
-48 4 -26 11 10 20 24 20 31 0 7 10 14 23 16 31 4 34 46 5 78 l-23 26 -35 -34z
m70 -33 c0 -3 -6 -12 -14 -18 -11 -9 -18 -8 -30 4 -21 21 -20 32 2 44 13 8 20
6 30 -6 6 -9 12 -20 12 -24z"/>
<path d="M1015 647 c2 -30 13 -47 31 -47 19 0 17 10 -9 42 -22 27 -23 27 -22
5z"/>
<path d="M1999 639 c-7 -15 -8 -19 0 -15 13 9 103 -58 93 -69 -4 -4 -1 -6 7
-3 28 8 20 23 -29 57 -27 18 -47 37 -44 42 3 5 1 9 -5 9 -6 0 -15 -10 -22 -21z"/>
<path d="M976 604 c-10 -25 -7 -30 21 -43 31 -14 56 0 35 21 -7 7 -12 8 -12 3
0 -4 -8 2 -19 14 -16 18 -20 19 -25 5z"/>
<path d="M1964 595 c-4 -8 2 -34 11 -58 9 -23 20 -48 22 -55 3 -8 -18 -2 -51
15 -53 26 -57 26 -73 10 -15 -14 -15 -17 -2 -17 19 0 92 -74 83 -83 -4 -4 -3
-7 2 -7 12 0 34 21 34 33 0 4 -4 6 -8 3 -5 -3 -22 8 -37 24 -34 35 -28 37 26
9 23 -11 43 -18 46 -15 3 3 -4 29 -16 58 l-22 52 31 -29 c16 -16 30 -35 30
-43 0 -12 4 -11 21 4 15 13 17 20 7 22 -21 7 -88 74 -82 84 3 4 0 8 -6 8 -6 0
-13 -7 -16 -15z"/>
<path d="M560 588 c0 -18 -61 -78 -79 -78 -11 0 -11 -3 -1 -15 15 -19 30 -19
30 -2 0 7 14 26 32 43 20 19 29 23 25 12 -13 -38 -20 -118 -9 -118 6 0 25 18
42 40 17 22 39 40 47 40 13 0 13 3 3 15 -13 16 -35 21 -26 7 3 -5 -9 -22 -26
-38 l-31 -29 8 45 c11 69 11 83 -2 87 -7 3 -13 -2 -13 -9z"/>
<path d="M673 493 c8 -12 -57 -106 -66 -96 -4 3 -7 2 -7 -3 0 -8 72 -64 83
-64 3 0 8 7 11 16 4 11 2 15 -8 11 -8 -3 -24 2 -35 11 -18 15 -19 19 -6 36 12
16 18 17 27 8 7 -7 18 -12 26 -12 9 0 5 7 -9 19 -22 18 -22 21 -9 35 14 14 18
14 38 0 12 -8 20 -20 17 -25 -4 -5 -2 -9 4 -9 24 0 19 21 -11 43 -44 32 -63
43 -55 30z"/>
<path d="M1799 454 l-36 -25 33 -36 c19 -20 36 -45 40 -55 7 -24 14 -23 54 10
23 20 31 33 25 42 -6 10 -10 8 -16 -9 -11 -29 -37 -37 -57 -17 -16 16 -15 18
8 36 28 22 21 27 -10 8 -15 -10 -22 -10 -32 0 -17 17 3 47 31 46 12 0 20 4 18
10 -6 18 -21 15 -58 -10z"/>
<path d="M1670 380 c-19 -11 -29 -19 -23 -20 16 0 62 -91 55 -108 -3 -11 0
-12 17 -2 19 10 20 13 6 26 -36 36 3 69 40 34 35 -33 49 -23 14 11 -17 17 -28
33 -25 36 10 10 -14 43 -32 43 -9 -1 -33 -9 -52 -20z m65 -10 c8 -13 -13 -40
-30 -40 -15 0 -28 27 -19 41 7 12 41 11 49 -1z"/>
<path d="M813 330 c-28 -27 -47 -53 -42 -56 6 -3 16 2 23 11 10 14 16 15 39 4
29 -13 34 -24 16 -35 -8 -4 -7 -9 2 -15 23 -14 24 -12 26 66 0 41 -2 75 -5 75
-4 0 -30 -23 -59 -50z m43 -27 c-3 -3 -13 -3 -22 1 -15 6 -15 8 2 27 l19 21 3
-22 c2 -12 1 -24 -2 -27z"/>
<path d="M1563 337 c-34 -13 -53 -27 -35 -27 14 0 46 -85 39 -105 -8 -19 3
-19 27 -2 17 12 17 14 2 20 -19 8 -22 37 -3 37 16 0 47 32 47 48 0 12 -28 42
-38 41 -4 0 -21 -6 -39 -12z m53 -22 c7 -18 -12 -45 -32 -45 -15 0 -28 35 -19
50 9 15 45 12 51 -5z"/>
<path d="M958 329 c-27 -15 -22 -41 13 -70 19 -15 29 -31 25 -37 -12 -19 -44
-14 -60 10 -16 22 -16 22 -16 2 0 -24 43 -48 71 -39 27 9 24 50 -6 73 -33 26
-33 52 0 52 17 0 29 -7 35 -22 8 -22 9 -22 9 -2 1 13 -9 25 -24 32 -30 14 -26
14 -47 1z"/>
<path d="M1088 245 c-18 -30 -36 -55 -41 -55 -4 0 -5 -4 -2 -10 3 -5 13 -10
21 -10 8 0 13 4 10 8 -10 17 10 30 37 25 21 -4 27 -10 24 -23 -3 -12 2 -20 15
-23 13 -4 18 -1 14 8 -2 7 -10 40 -17 74 -6 34 -15 61 -20 61 -4 0 -23 -25
-41 -55z m34 -23 c-21 -6 -25 4 -11 30 l13 23 6 -25 c4 -17 2 -26 -8 -28z"/>
<path d="M1380 243 c-7 -32 -15 -64 -17 -70 -3 -7 2 -13 10 -13 8 0 14 8 13
18 -1 12 8 18 32 20 24 2 32 -1 32 -12 0 -9 6 -16 14 -16 10 0 3 20 -21 65
-19 36 -38 65 -42 65 -4 0 -14 -26 -21 -57z m50 -14 c0 -8 -31 -21 -37 -15 -2
2 -1 16 3 31 7 26 8 27 20 10 8 -11 14 -22 14 -26z"/>
<path d="M1215 220 l0 -70 30 0 c51 0 75 24 75 75 0 50 -16 65 -72 65 l-33 0
0 -70z m77 43 c24 -21 23 -58 -2 -83 -32 -32 -50 -16 -50 46 0 59 15 70 52 37z"/>
</g>
</svg>
