<?xml version="1.0" standalone="no"?>
<!DOCTYPE svg PUBLIC "-//W3C//DTD SVG 20010904//EN"
 "http://www.w3.org/TR/2001/REC-SVG-20010904/DTD/svg10.dtd">
<svg version="1.0" xmlns="http://www.w3.org/2000/svg"
 width="230.000000pt" height="171.000000pt" viewBox="0 0 230.000000 171.000000"
 preserveAspectRatio="xMidYMid meet">
<metadata>
Created by potrace 1.16, written by Peter Selinger 2001-2019
</metadata>
<g transform="translate(0.000000,171.000000) scale(0.100000,-0.100000)"
fill="#000000" stroke="none">
<path d="M2134 1582 c41 -79 25 -146 -43 -177 -41 -18 -119 -22 -147 -7 -10 5
-65 15 -121 22 -79 10 -109 11 -128 2 -39 -18 -96 -14 -132 8 -44 27 -45 71
-2 129 29 41 29 42 7 36 -44 -15 -88 -50 -109 -90 -18 -35 -20 -45 -10 -81 13
-49 30 -65 107 -103 l59 -30 -37 0 c-20 -1 -48 -5 -62 -11 -14 -5 -26 -6 -26
-1 0 5 7 12 16 15 22 9 16 18 -43 65 -63 49 -70 50 -238 16 -133 -26 -159 -36
-235 -91 -102 -73 -354 -174 -435 -174 -12 0 -66 -13 -121 -30 -129 -39 -230
-42 -262 -7 -30 32 -29 81 3 123 19 24 37 35 75 43 66 14 102 33 133 71 33 39
40 79 29 160 l-9 65 -21 -46 c-27 -57 -45 -73 -122 -110 -50 -24 -64 -36 -81
-71 -11 -24 -36 -68 -55 -98 -40 -63 -44 -109 -14 -158 29 -47 77 -64 166 -60
41 2 73 1 72 -2 -94 -185 -89 -171 -115 -350 -3 -23 -19 -49 -53 -83 -45 -45
-48 -53 -59 -124 -12 -78 -25 -108 -85 -183 -35 -45 -35 -70 2 -70 11 0 13 -9
9 -40 -8 -58 9 -70 94 -70 80 0 86 10 44 72 -48 71 -19 176 72 258 53 48 196
157 268 203 46 31 112 45 139 30 11 -6 3 -9 -30 -11 -25 -1 -57 -7 -72 -14
-23 -12 -26 -18 -24 -55 2 -27 -4 -55 -17 -82 -12 -22 -21 -46 -21 -54 0 -8
23 -33 51 -57 54 -46 109 -122 109 -151 0 -10 9 -19 21 -21 14 -2 25 -15 33
-37 9 -28 18 -37 46 -44 39 -10 120 -1 120 14 0 27 -36 73 -110 139 -120 108
-132 143 -65 188 19 13 53 48 75 78 45 60 57 62 112 23 33 -23 49 -23 106 -4
41 14 49 14 116 -5 40 -11 81 -20 92 -20 10 0 24 -4 31 -8 19 -12 -18 -141
-60 -210 -39 -64 -46 -96 -23 -105 9 -4 16 -23 18 -49 3 -40 6 -44 39 -55 48
-15 119 -6 119 16 0 9 -12 34 -27 56 -21 30 -28 51 -27 85 1 60 27 108 113
206 l70 82 -37 7 c-63 12 -152 67 -174 109 -8 15 -1 12 26 -11 20 -18 54 -42
76 -53 49 -25 170 -43 232 -35 47 7 47 7 63 -30 23 -58 19 -77 -30 -128 -35
-37 -45 -55 -45 -81 0 -18 7 -39 15 -46 16 -13 53 6 136 71 l35 28 0 136 c-1
89 -5 138 -12 143 -61 38 -113 79 -124 96 -13 21 -13 21 9 1 28 -24 31 -19 65
91 14 44 34 89 45 98 19 18 21 17 54 -3 49 -30 107 -28 147 5 l31 26 -7 83
c-4 46 -4 99 0 118 6 34 8 35 50 34 31 -1 50 4 65 17 29 26 27 33 -16 55 l-37
19 34 7 c162 35 219 177 113 280 -43 42 -59 45 -39 7z"/>
</g>
</svg>
