<?xml version="1.0" standalone="no"?>
<!DOCTYPE svg PUBLIC "-//W3C//DTD SVG 20010904//EN"
 "http://www.w3.org/TR/2001/REC-SVG-20010904/DTD/svg10.dtd">
<svg version="1.0" xmlns="http://www.w3.org/2000/svg"
 width="225.000000pt" height="180.000000pt" viewBox="0 -20 225.000000 180.000000"
 preserveAspectRatio="xMidYMid meet">

<g transform="translate(0.000000,225.000000) scale(0.100000,-0.100000)"
fill="#000000" stroke="none">
<path d="M900 1697 c-19 -5 -56 -7 -82 -3 -47 5 -67 -7 -28 -17 32 -8 40 -49
40 -203 l0 -144 -30 -6 c-59 -12 -29 -24 60 -24 50 0 90 3 90 8 0 4 -14 15
-30 24 -29 17 -30 19 -30 93 l0 75 94 0 93 0 7 -37 c3 -21 6 -59 6 -86 0 -45
-2 -48 -30 -53 -57 -12 -29 -24 55 -24 87 0 104 8 60 28 l-25 12 2 162 c3 158
4 163 26 173 33 15 29 37 -5 28 -16 -5 -54 -7 -85 -7 -32 1 -58 -2 -58 -7 0
-5 6 -9 14 -9 24 0 36 -26 43 -94 l6 -67 -99 3 -99 3 0 70 c0 63 2 71 23 81
21 10 29 21 20 28 -1 2 -19 -1 -38 -7z"/>
<path d="M1256 1689 c3 -5 12 -9 20 -9 26 0 34 -48 34 -201 l0 -149 -30 -6
c-59 -12 -29 -24 60 -24 50 0 90 3 90 8 0 4 -14 15 -30 24 l-30 17 0 166 0
165 43 0 c54 0 86 -30 94 -87 6 -50 -12 -73 -65 -80 -64 -9 -52 -26 15 -21 48
4 61 10 85 37 25 27 29 40 26 78 -2 37 -9 50 -31 66 -24 18 -43 21 -157 23
-71 1 -127 -3 -124 -7z"/>
<path d="M461 1226 c9 -9 300 -46 454 -57 257 -19 612 0 870 46 l80 14 -85 -5
c-47 -2 -141 -9 -210 -14 -191 -15 -680 -12 -885 5 -191 16 -231 18 -224 11z"/>
<path d="M438 1015 c2 -30 8 -55 12 -55 4 0 10 25 12 55 2 44 0 55 -12 55 -12
0 -14 -11 -12 -55z"/>
<path d="M507 1046 c4 -19 0 -25 -18 -29 l-24 -4 23 -2 c18 -1 23 -6 20 -23
-2 -11 3 -23 10 -25 9 -3 12 11 12 51 0 41 -4 56 -14 56 -9 0 -12 -8 -9 -24z"/>
<path d="M566 1054 c-20 -20 -20 -44 0 -72 20 -29 51 -25 77 10 19 25 19 28 3
52 -9 14 -21 26 -26 26 -6 0 -3 -11 6 -25 14 -21 15 -31 6 -50 -14 -30 -37
-32 -52 -6 -15 29 -12 59 8 70 9 6 12 11 5 11 -6 0 -19 -7 -27 -16z"/>
<path d="M670 1061 c0 -5 10 -7 21 -4 21 6 22 3 17 -44 -3 -32 -1 -50 6 -50 7
0 11 22 11 54 0 51 -1 53 -27 53 -16 0 -28 -4 -28 -9z"/>
<path d="M745 1060 c3 -5 8 -10 11 -10 2 0 4 5 4 10 0 6 -5 10 -11 10 -5 0 -7
-4 -4 -10z"/>
<path d="M786 1018 c2 -53 2 -53 34 -53 21 0 35 6 38 15 4 12 2 13 -9 3 -27
-26 -39 -15 -39 37 0 33 -4 50 -12 50 -9 0 -13 -16 -12 -52z"/>
<path d="M830 1066 c0 -2 7 -6 15 -10 8 -3 15 -1 15 4 0 6 -7 10 -15 10 -8 0
-15 -2 -15 -4z"/>
<path d="M885 1015 l0 -56 39 3 c24 2 41 9 44 18 4 12 2 13 -9 3 -7 -7 -22
-13 -32 -13 -17 0 -18 6 -15 50 2 39 0 50 -12 50 -12 0 -15 -13 -15 -55z"/>
<path d="M1030 1017 c0 -50 1 -53 27 -55 25 -2 25 -1 9 11 -14 10 -17 23 -14
55 2 30 0 42 -9 42 -9 0 -13 -17 -13 -53z"/>
<path d="M1094 1054 c19 -18 20 -38 5 -66 -9 -16 -8 -19 3 -16 7 3 17 17 22
31 8 21 6 31 -9 47 -10 11 -22 20 -27 20 -5 0 -2 -7 6 -16z"/>
<path d="M1155 1016 c0 -31 4 -52 10 -50 6 2 10 27 10 54 0 28 -4 50 -10 50
-5 0 -10 -24 -10 -54z"/>
<path d="M1200 1066 c0 -2 7 -6 15 -10 8 -3 15 -1 15 4 0 6 -7 10 -15 10 -8 0
-15 -2 -15 -4z"/>
<path d="M1256 1018 c1 -43 5 -54 20 -57 16 -3 16 -1 5 13 -8 9 -12 32 -9 56
2 23 -1 40 -7 40 -6 0 -9 -22 -9 -52z"/>
<path d="M1395 1017 c0 -36 4 -54 13 -54 8 0 12 17 12 49 0 38 4 48 16 48 12
0 15 -6 11 -21 -3 -13 -1 -19 6 -16 7 2 12 12 12 23 0 15 -8 20 -35 22 l-35 3
0 -54z"/>
<path d="M1510 1055 c0 -8 4 -15 10 -15 5 0 7 -6 4 -14 -3 -8 -1 -17 5 -21 6
-3 11 -15 11 -26 0 -18 11 -25 22 -13 3 3 -3 23 -13 44 -11 21 -19 44 -19 50
0 5 -4 10 -10 10 -5 0 -10 -7 -10 -15z"/>
<path d="M1590 1052 c0 -10 11 -29 25 -42 29 -27 18 -53 -11 -29 -15 12 -17
12 -12 -1 7 -21 38 -19 52 3 9 15 6 22 -18 42 -16 12 -25 28 -22 34 4 6 2 11
-3 11 -6 0 -11 -8 -11 -18z"/>
<path d="M1625 1060 c3 -5 8 -10 11 -10 2 0 4 5 4 10 0 6 -5 10 -11 10 -5 0
-7 -4 -4 -10z"/>
<path d="M1676 1018 c1 -41 5 -54 19 -56 13 -3 15 0 8 15 -5 10 -8 35 -8 56 1
20 -4 37 -10 37 -6 0 -9 -22 -9 -52z"/>
<path d="M1710 1066 c0 -2 9 -6 20 -9 11 -3 20 -1 20 4 0 5 -9 9 -20 9 -11 0
-20 -2 -20 -4z"/>
<path d="M1782 1058 c-20 -20 -15 -76 7 -88 30 -15 33 -12 11 10 -22 22 -26
60 -8 78 7 7 10 12 7 12 -3 0 -10 -5 -17 -12z"/>
<path d="M1842 1042 c10 -26 10 -37 0 -53 -11 -18 -11 -20 0 -17 7 3 17 17 23
32 7 22 5 30 -13 48 l-22 22 12 -32z"/>
<path d="M836 1031 c-4 -7 -5 -15 -2 -18 9 -9 19 4 14 18 -4 11 -6 11 -12 0z"/>
<path d="M1195 1020 c-3 -5 -1 -10 4 -10 6 0 11 5 11 10 0 6 -2 10 -4 10 -3 0
-8 -4 -11 -10z"/>
<path d="M1497 1023 c-4 -3 -7 -11 -7 -17 0 -6 5 -5 12 2 6 6 9 14 7 17 -3 3
-9 2 -12 -2z"/>
<path d="M1720 1020 c0 -5 5 -10 10 -10 6 0 10 5 10 10 0 6 -4 10 -10 10 -5 0
-10 -4 -10 -10z"/>
<path d="M1206 974 c-17 -12 -17 -14 -4 -14 9 0 20 5 23 11 11 17 2 18 -19 3z"/>
<path d="M1320 975 c-11 -13 -10 -14 4 -9 9 3 16 10 16 15 0 13 -6 11 -20 -6z"/>
<path d="M1480 976 c0 -9 5 -16 10 -16 6 0 10 4 10 9 0 6 -4 13 -10 16 -5 3
-10 -1 -10 -9z"/>
<path d="M1737 983 c-4 -3 -7 -11 -7 -17 0 -6 5 -5 12 2 6 6 9 14 7 17 -3 3
-9 2 -12 -2z"/>
</g>
</svg>
