<?xml version="1.0" encoding="utf-8"?>
<svg version="1.1" id="Layer_1" xmlns="http://www.w3.org/2000/svg" xmlns:xlink="http://www.w3.org/1999/xlink" 
	 viewBox="1200 1350 1600 950" style="enable-background:new 0 0 4000 4000;" xml:space="preserve">
<g fill="#003380">
	<path style="fill-rule:evenodd;clip-rule:evenodd;" d="M1814.718,1631.063c-114.538-9.392-280.546-106.913-317.144-174.007
		c-114.504,22.452-133.59,80.827-154.919,113.382c0,0-0.83,71.537,100.7,142.431c93.461,65.263,217.542,132.839,349.4,151.677
		c4.687-27.561,7.371-50.5,7.371-50.5C1855.132,1765.775,1814.718,1631.063,1814.718,1631.063"/>
	<path style="fill-rule:evenodd;clip-rule:evenodd;" d="M1859.606,1416.707c-254.778-90.904-840.487-0.062-416.241,296.171
		C1460.22,1503.982,1699.676,1452.177,1859.606,1416.707"/>
	<path style="fill-rule:evenodd;clip-rule:evenodd;" d="M2000.51,1588.965c0,0-54.448-5.052-185.792,42.098
		c0,0,40.414,134.712-14.593,182.984c0,0,76.337,74.091,87.562,167.266c0,0,6.735,93.174-49.394,135.833
		c0,0-17.961,140.323,66.234,162.776c0,0,2.141-1.772,6.406-4.71c12.312-8.486,42.325-26.695,89.576-40.036
		c47.252,13.341,77.265,31.55,89.578,40.036c4.265,2.938,6.406,4.71,6.406,4.71c84.195-22.452,66.234-162.776,66.234-162.776
		c-56.128-42.659-49.393-135.833-49.393-135.833c11.224-93.175,87.561-167.266,87.561-167.266
		c-55.006-48.271-14.595-182.984-14.595-182.984C2054.958,1583.913,2000.51,1588.965,2000.51,1588.965"/>
	<path style="fill-rule:evenodd;clip-rule:evenodd;" d="M1838.293,2117.146c56.129-42.659,49.394-135.833,49.394-135.833
		c-11.225-93.175-87.562-167.266-87.562-167.266s-2.684,22.939-7.371,50.5c-5.365,31.55-13.352,69.155-22.939,85.333
		C1769.815,1949.879,1823.699,2063.26,1838.293,2117.146"/>
	<path style="fill-rule:evenodd;clip-rule:evenodd;" d="M1646.817,1824.664c-54.243-1.777-110.693-10.995-146.797-37.047
		c0,0,80.451,194.302,269.796,162.262c9.587-16.178,17.574-53.783,22.939-85.333c4.687-27.561,7.371-50.5,7.371-50.5
		S1725.809,1827.247,1646.817,1824.664"/>
	<defs>
		<filter id="Adobe_OpacityMaskFilter" filterUnits="userSpaceOnUse" x="1870.114" y="2175.584" width="52.96" height="71.516">
			<feColorMatrix  type="matrix" values="1 0 0 0 0  0 1 0 0 0  0 0 1 0 0  0 0 0 1 0"/>
		</filter>
	</defs>
	<mask maskUnits="userSpaceOnUse" x="1870.114" y="2175.584" width="52.96" height="71.516" id="SVGID_1_">
		<g style="filter:url(#Adobe_OpacityMaskFilter);">
			
				<linearGradient id="SVGID_00000062909368999792412700000005102100282064912282_" gradientUnits="userSpaceOnUse" x1="294.0037" y1="3126.5889" x2="233.8947" y2="2994.8628" gradientTransform="matrix(1 0 0 1 1628.149 -859.2367)">
				<stop  offset="0" style="stop-color:#FFFFFF"/>
				<stop  offset="1" style="stop-color:#000000"/>
			</linearGradient>
			
				<rect x="1870.113" y="2175.584" style="fill:url(#SVGID_00000062909368999792412700000005102100282064912282_);" width="52.963" height="71.517"/>
		</g>
	</mask>
	<path style="mask:url(#SVGID_1_);fill-rule:evenodd;clip-rule:evenodd;" d="M1871.756,2175.584
		c-3.602,19.584-0.696,34.905,3.124,45.349c14.147,38.667,66.108,33.126,41.822-7.688
		C1906.7,2196.44,1888.889,2183.372,1871.756,2175.584"/>
	<defs>
		
			<filter id="Adobe_OpacityMaskFilter_00000141433741658147389230000004570530175602869691_" filterUnits="userSpaceOnUse" x="1500.019" y="1787.617" width="300.106" height="119.372">
			<feColorMatrix  type="matrix" values="1 0 0 0 0  0 1 0 0 0  0 0 1 0 0  0 0 0 1 0"/>
		</filter>
	</defs>
	
		<mask maskUnits="userSpaceOnUse" x="1500.019" y="1787.617" width="300.106" height="119.372" id="SVGID_00000005264460638746304290000011527725597959479725_">
		<g style="filter:url(#Adobe_OpacityMaskFilter_00000141433741658147389230000004570530175602869691_);">
			
				<linearGradient id="SVGID_00000015333356797368148820000008237172151799705529_" gradientUnits="userSpaceOnUse" x1="-101.9876" y1="2733.4751" x2="241.5386" y2="2798.6152" gradientTransform="matrix(1 0 0 1 1559.0052 -922.7789)">
				<stop  offset="0" style="stop-color:#FFFFFF"/>
				<stop  offset="1" style="stop-color:#000000"/>
			</linearGradient>
			
				<rect x="1500.019" y="1787.617" style="fill:url(#SVGID_00000015333356797368148820000008237172151799705529_);" width="300.107" height="119.373"/>
		</g>
	</mask>
	<path style="mask:url(#SVGID_00000005264460638746304290000011527725597959479725_);fill-rule:evenodd;clip-rule:evenodd;" d="
		M1500.019,1787.617c0,0,162.995,155.173,286.056,111.682c2.528-11.525,4.771-23.523,6.679-34.753
		c4.687-27.561,7.371-50.5,7.371-50.5s-74.317,13.201-153.309,10.617C1592.573,1822.887,1536.124,1813.668,1500.019,1787.617"/>
	<defs>
		
			<filter id="Adobe_OpacityMaskFilter_00000003099174093968172230000012563165627940936382_" filterUnits="userSpaceOnUse" x="1443.355" y="1522.215" width="116.9" height="255.123">
			<feColorMatrix  type="matrix" values="1 0 0 0 0  0 1 0 0 0  0 0 1 0 0  0 0 0 1 0"/>
		</filter>
	</defs>
	
		<mask maskUnits="userSpaceOnUse" x="1443.355" y="1522.215" width="116.9" height="255.123" id="SVGID_00000044168232628039770910000002052502307853660862_">
		<g style="filter:url(#Adobe_OpacityMaskFilter_00000003099174093968172230000012563165627940936382_);">
			
				<linearGradient id="SVGID_00000147214701237868818010000011286125394631810999_" gradientUnits="userSpaceOnUse" x1="-169.9022" y1="2815.4109" x2="85.1457" y2="2363.1226" gradientTransform="matrix(1 0 0 1 1548.4187 -947.0015)">
				<stop  offset="0" style="stop-color:#FFFFFF"/>
				<stop  offset="1" style="stop-color:#000000"/>
			</linearGradient>
			
				<rect x="1443.355" y="1522.213" style="fill:url(#SVGID_00000147214701237868818010000011286125394631810999_);" width="116.901" height="255.124"/>
		</g>
	</mask>
	<path style="mask:url(#SVGID_00000044168232628039770910000002052502307853660862_);fill-rule:evenodd;clip-rule:evenodd;" d="
		M1546.768,1777.338c-84.621-101.038,13.488-255.124,13.486-255.123c-63.349,42.751-109.802,102.816-116.9,190.654
		C1474.674,1734.739,1509.432,1756.87,1546.768,1777.338"/>
	<defs>
		
			<filter id="Adobe_OpacityMaskFilter_00000128462869812275664280000010821093404578962602_" filterUnits="userSpaceOnUse" x="1293.585" y="1382.967" width="566.021" height="214.493">
			<feColorMatrix  type="matrix" values="1 0 0 0 0  0 1 0 0 0  0 0 1 0 0  0 0 0 1 0"/>
		</filter>
	</defs>
	
		<mask maskUnits="userSpaceOnUse" x="1293.585" y="1382.967" width="566.021" height="214.493" id="SVGID_00000118360856963036312770000003364738422316215739_">
		<g style="filter:url(#Adobe_OpacityMaskFilter_00000128462869812275664280000010821093404578962602_);">
			
				<linearGradient id="SVGID_00000110454205203467164920000003195755109437038987_" gradientUnits="userSpaceOnUse" x1="406.9504" y1="2258.0222" x2="-162.0751" y2="2603.2053" gradientTransform="matrix(1 0 0 1 1520.4376 -980.6077)">
				<stop  offset="0" style="stop-color:#FFFFFF"/>
				<stop  offset="1" style="stop-color:#000000"/>
			</linearGradient>
			
				<rect x="1293.585" y="1382.966" style="fill:url(#SVGID_00000110454205203467164920000003195755109437038987_);" width="566.021" height="214.494"/>
		</g>
	</mask>
	<path style="mask:url(#SVGID_00000118360856963036312770000003364738422316215739_);fill-rule:evenodd;clip-rule:evenodd;" d="
		M1318.812,1597.46c40.932-249.566,540.794-180.753,540.794-180.753C1641.571,1338.911,1181.168,1394.223,1318.812,1597.46"/>
	<path style="fill-rule:evenodd;clip-rule:evenodd;" d="M2186.3,1631.063c114.54-9.392,280.548-106.913,317.147-174.007
		c114.504,22.452,133.59,80.827,154.918,113.382c0,0,0.831,71.537-100.699,142.431c-93.461,65.263-217.542,132.839-349.4,151.677
		c-4.688-27.561-7.372-50.5-7.372-50.5C2145.889,1765.775,2186.3,1631.063,2186.3,1631.063"/>
	<path style="fill-rule:evenodd;clip-rule:evenodd;" d="M2141.414,1416.707c254.779-90.904,840.488-0.062,416.241,296.171
		C2540.8,1503.982,2301.345,1452.177,2141.414,1416.707"/>
	<path style="fill-rule:evenodd;clip-rule:evenodd;" d="M2000.51,2235.175c47.252,13.341,77.265,31.55,89.578,40.036
		c0,0-21.547,30.362-89.578,34.425c-68.031-4.063-89.576-34.425-89.576-34.425
		C1923.246,2266.725,1953.258,2248.517,2000.51,2235.175"/>
	<path style="fill-rule:evenodd;clip-rule:evenodd;" d="M2162.727,2117.146c-56.128-42.659-49.393-135.833-49.393-135.833
		c11.224-93.175,87.561-167.266,87.561-167.266s2.684,22.939,7.372,50.5c5.365,31.55,13.351,69.155,22.939,85.333
		C2231.205,1949.879,2177.321,2063.26,2162.727,2117.146"/>
	<defs>
		
			<filter id="Adobe_OpacityMaskFilter_00000011711401674936892230000009712145062957924781_" filterUnits="userSpaceOnUse" x="1814.718" y="1588.807" width="371.582" height="130.447">
			<feColorMatrix  type="matrix" values="1 0 0 0 0  0 1 0 0 0  0 0 1 0 0  0 0 0 1 0"/>
		</filter>
	</defs>
	
		<mask maskUnits="userSpaceOnUse" x="1814.718" y="1588.807" width="371.582" height="130.447" id="SVGID_00000155834691555668558710000002414796698644515210_">
		<g style="filter:url(#Adobe_OpacityMaskFilter_00000011711401674936892230000009712145062957924781_);">
			
				<linearGradient id="SVGID_00000155841746500742533420000015245466285158328712_" gradientUnits="userSpaceOnUse" x1="382.7093" y1="2505.238" x2="382.7093" y2="2628.1853" gradientTransform="matrix(1 0 0 1 1617.7997 -957.8531)">
				<stop  offset="0" style="stop-color:#FFFFFF"/>
				<stop  offset="1" style="stop-color:#000000"/>
			</linearGradient>
			
				<rect x="1814.718" y="1588.808" style="fill:url(#SVGID_00000155841746500742533420000015245466285158328712_);" width="371.582" height="130.447"/>
		</g>
	</mask>
	<path style="mask:url(#SVGID_00000155834691555668558710000002414796698644515210_);fill-rule:evenodd;clip-rule:evenodd;" d="
		M2172.126,1719.254c0,0-34.401-64.098-171.617-107.88c-137.215,43.781-171.615,107.88-171.615,107.88
		c-1.448-45.765-14.177-88.192-14.177-88.192c131.344-47.15,185.792-42.098,185.792-42.098s54.448-5.052,185.79,42.098
		C2186.3,1631.063,2173.573,1673.489,2172.126,1719.254"/>
	<path style="fill-rule:evenodd;clip-rule:evenodd;" d="M2354.204,1824.664c54.243-1.777,110.692-10.995,146.797-37.047
		c0,0-80.451,194.302-269.795,162.262c-9.588-16.178-17.574-53.783-22.939-85.333c-4.688-27.561-7.372-50.5-7.372-50.5
		S2275.21,1827.247,2354.204,1824.664"/>
	<defs>
		
			<filter id="Adobe_OpacityMaskFilter_00000160189613107581374740000003486551487828932001_" filterUnits="userSpaceOnUse" x="1910.933" y="2235.175" width="179.154" height="52.232">
			<feColorMatrix  type="matrix" values="1 0 0 0 0  0 1 0 0 0  0 0 1 0 0  0 0 0 1 0"/>
		</filter>
	</defs>
	
		<mask maskUnits="userSpaceOnUse" x="1910.933" y="2235.175" width="179.154" height="52.232" id="SVGID_00000044174354061422717770000012346138793706868636_">
		<g style="filter:url(#Adobe_OpacityMaskFilter_00000160189613107581374740000003486551487828932001_);">
			
				<linearGradient id="SVGID_00000104673708283009877950000006189336406820852900_" gradientUnits="userSpaceOnUse" x1="364.7349" y1="3050.3149" x2="364.7349" y2="3140.719" gradientTransform="matrix(1 0 0 1 1635.7754 -851.7064)">
				<stop  offset="0" style="stop-color:#FFFFFF"/>
				<stop  offset="1" style="stop-color:#000000"/>
			</linearGradient>
			
				<rect x="1910.933" y="2235.175" style="fill:url(#SVGID_00000104673708283009877950000006189336406820852900_);" width="179.154" height="52.232"/>
		</g>
	</mask>
	<path style="mask:url(#SVGID_00000044174354061422717770000012346138793706868636_);fill-rule:evenodd;clip-rule:evenodd;" d="
		M2076.36,2287.407c-13.588-8.697-38.957-22.695-75.851-34.033c-36.893,11.338-62.262,25.337-75.85,34.033
		c-9.799-6.661-13.726-12.196-13.726-12.196c12.312-8.486,42.325-26.695,89.576-40.036c47.252,13.341,77.265,31.55,89.578,40.036
		C2090.087,2275.211,2086.16,2280.746,2076.36,2287.407"/>
	<defs>
		
			<filter id="Adobe_OpacityMaskFilter_00000034804121418956498890000003839651664660961972_" filterUnits="userSpaceOnUse" x="2077.946" y="2175.584" width="52.959" height="71.516">
			<feColorMatrix  type="matrix" values="1 0 0 0 0  0 1 0 0 0  0 0 1 0 0  0 0 0 1 0"/>
		</filter>
	</defs>
	
		<mask maskUnits="userSpaceOnUse" x="2077.946" y="2175.584" width="52.959" height="71.516" id="SVGID_00000122696798952831929020000010166927178526688430_">
		<g style="filter:url(#Adobe_OpacityMaskFilter_00000034804121418956498890000003839651664660961972_);">
			
				<linearGradient id="SVGID_00000043431111298121094410000002093349972902095767_" gradientUnits="userSpaceOnUse" x1="411.8846" y1="3126.5984" x2="471.9935" y2="2994.8726" gradientTransform="matrix(1 0 0 1 1666.9777 -859.2367)">
				<stop  offset="0" style="stop-color:#FFFFFF"/>
				<stop  offset="1" style="stop-color:#000000"/>
			</linearGradient>
			
				<rect x="2077.944" y="2175.584" style="fill:url(#SVGID_00000043431111298121094410000002093349972902095767_);" width="52.961" height="71.517"/>
		</g>
	</mask>
	<path style="mask:url(#SVGID_00000122696798952831929020000010166927178526688430_);fill-rule:evenodd;clip-rule:evenodd;" d="
		M2129.264,2175.584c3.601,19.584,0.697,34.905-3.123,45.349c-14.147,38.667-66.109,33.126-41.822-7.688
		C2094.321,2196.44,2112.131,2183.372,2129.264,2175.584"/>
	<defs>
		
			<filter id="Adobe_OpacityMaskFilter_00000178163417083458022670000009191541074672668853_" filterUnits="userSpaceOnUse" x="2200.895" y="1787.617" width="300.106" height="119.372">
			<feColorMatrix  type="matrix" values="1 0 0 0 0  0 1 0 0 0  0 0 1 0 0  0 0 0 1 0"/>
		</filter>
	</defs>
	
		<mask maskUnits="userSpaceOnUse" x="2200.895" y="1787.617" width="300.106" height="119.372" id="SVGID_00000093875755709643968060000005173934286180168352_">
		<g style="filter:url(#Adobe_OpacityMaskFilter_00000178163417083458022670000009191541074672668853_);">
			
				<linearGradient id="SVGID_00000002384053690266199860000013687297696614374316_" gradientUnits="userSpaceOnUse" x1="854.0641" y1="2733.4731" x2="510.5381" y2="2798.6135" gradientTransform="matrix(1 0 0 1 1689.9482 -922.7789)">
				<stop  offset="0" style="stop-color:#FFFFFF"/>
				<stop  offset="1" style="stop-color:#000000"/>
			</linearGradient>
			
				<rect x="2200.895" y="1787.617" style="fill:url(#SVGID_00000002384053690266199860000013687297696614374316_);" width="300.107" height="119.373"/>
		</g>
	</mask>
	<path style="mask:url(#SVGID_00000093875755709643968060000005173934286180168352_);fill-rule:evenodd;clip-rule:evenodd;" d="
		M2501.001,1787.617c0,0-162.995,155.173-286.056,111.682c-2.528-11.525-4.77-23.523-6.679-34.753
		c-4.688-27.561-7.372-50.5-7.372-50.5s74.315,13.201,153.309,10.617C2408.448,1822.887,2464.896,1813.668,2501.001,1787.617"/>
	<defs>
		
			<filter id="Adobe_OpacityMaskFilter_00000170259919686049423110000014179515970146984324_" filterUnits="userSpaceOnUse" x="2440.767" y="1522.215" width="116.9" height="255.123">
			<feColorMatrix  type="matrix" values="1 0 0 0 0  0 1 0 0 0  0 0 1 0 0  0 0 0 1 0"/>
		</filter>
	</defs>
	
		<mask maskUnits="userSpaceOnUse" x="2440.767" y="1522.215" width="116.9" height="255.123" id="SVGID_00000116193043125531628500000008864154958240331926_">
		<g style="filter:url(#Adobe_OpacityMaskFilter_00000170259919686049423110000014179515970146984324_);">
			
				<linearGradient id="SVGID_00000062163178721918573380000016640494613208852096_" gradientUnits="userSpaceOnUse" x1="887.741" y1="2815.4099" x2="632.6931" y2="2363.1216" gradientTransform="matrix(1 0 0 1 1734.7626 -947.0015)">
				<stop  offset="0" style="stop-color:#FFFFFF"/>
				<stop  offset="1" style="stop-color:#000000"/>
			</linearGradient>
			
				<rect x="2440.764" y="1522.213" style="fill:url(#SVGID_00000062163178721918573380000016640494613208852096_);" width="116.902" height="255.124"/>
		</g>
	</mask>
	<path style="mask:url(#SVGID_00000116193043125531628500000008864154958240331926_);fill-rule:evenodd;clip-rule:evenodd;" d="
		M2454.252,1777.338c84.622-101.038-13.487-255.124-13.485-255.123c63.349,42.751,109.801,102.816,116.899,190.654
		C2526.347,1734.739,2491.588,1756.87,2454.252,1777.338"/>
	<defs>
		
			<filter id="Adobe_OpacityMaskFilter_00000024684682274899622160000017317952232321016489_" filterUnits="userSpaceOnUse" x="2141.414" y="1382.967" width="566.021" height="214.493">
			<feColorMatrix  type="matrix" values="1 0 0 0 0  0 1 0 0 0  0 0 1 0 0  0 0 0 1 0"/>
		</filter>
	</defs>
	
		<mask maskUnits="userSpaceOnUse" x="2141.414" y="1382.967" width="566.021" height="214.493" id="SVGID_00000117674674301045071820000009917077510849802144_">
		<g style="filter:url(#Adobe_OpacityMaskFilter_00000024684682274899622160000017317952232321016489_);">
			
				<linearGradient id="SVGID_00000126303932016791168520000006149957722447215294_" gradientUnits="userSpaceOnUse" x1="394.7638" y1="2258.0024" x2="963.7893" y2="2603.1855" gradientTransform="matrix(1 0 0 1 1678.8356 -980.6077)">
				<stop  offset="0" style="stop-color:#FFFFFF"/>
				<stop  offset="1" style="stop-color:#000000"/>
			</linearGradient>
			
				<rect x="2141.414" y="1382.966" style="fill:url(#SVGID_00000126303932016791168520000006149957722447215294_);" width="566.021" height="214.494"/>
		</g>
	</mask>
	<path style="mask:url(#SVGID_00000117674674301045071820000009917077510849802144_);fill-rule:evenodd;clip-rule:evenodd;" d="
		M2682.208,1597.46c-40.932-249.566-540.794-180.753-540.794-180.753C2359.449,1338.911,2819.852,1394.223,2682.208,1597.46"/>
</g>
</svg>
