<?xml version="1.0" standalone="no"?>
<!DOCTYPE svg PUBLIC "-//W3C//DTD SVG 20010904//EN"
 "http://www.w3.org/TR/2001/REC-SVG-20010904/DTD/svg10.dtd">
<svg version="1.0" xmlns="http://www.w3.org/2000/svg"
 width="200.000000pt" height="200.000000pt" viewBox="0 0 200.000000 200.000000"
 preserveAspectRatio="xMidYMid meet">

<g transform="translate(0.000000,200.000000) scale(0.100000,-0.100000)"
fill="#000000" stroke="none">
<path d="M660 1410 c-157 -32 -293 -61 -303 -65 -10 -4 -22 -16 -27 -26 -6
-10 -10 -144 -10 -322 0 -287 1 -305 19 -321 21 -19 481 -158 584 -176 86 -16
140 -7 371 61 110 33 231 69 268 80 37 11 74 27 83 35 13 13 15 60 15 328 0
291 -1 314 -18 330 -21 19 -590 136 -657 135 -22 0 -168 -26 -325 -59z m286
-248 l22 -107 1 113 c1 125 -5 115 61 96 20 -5 20 -12 18 -287 l-3 -281 -35
-7 c-19 -4 -36 -6 -38 -4 -2 1 -13 61 -25 131 l-22 129 -3 -131 -3 -131 -37 6
-37 6 -3 282 -2 283 27 6 c16 3 33 7 38 9 17 4 19 -3 41 -113z m309 83 c39
-19 55 -51 55 -110 l0 -45 -40 0 c-40 0 -40 0 -40 39 0 39 -22 72 -35 51 -8
-12 -9 -359 -1 -367 3 -3 12 -3 21 0 12 5 15 24 15 92 0 50 -4 85 -10 85 -5 0
-10 18 -10 41 0 33 3 40 16 35 9 -3 31 -6 50 -6 l34 0 0 -143 c0 -99 -4 -148
-12 -159 -19 -24 -156 -45 -174 -27 -20 21 -32 435 -14 479 21 50 82 64 145
35z m-465 -266 l0 -271 -37 7 c-21 4 -40 8 -42 10 -3 3 -3 203 -1 467 0 49 6
54 58 57 l22 1 0 -271z m731 234 c18 -18 25 -383 7 -406 -7 -10 -38 -22 -75
-29 -96 -18 -93 -24 -93 221 0 113 4 211 8 217 4 6 13 13 21 15 22 8 120 -6
132 -18z m-900 -2 c22 -18 24 -26 24 -119 0 -92 -2 -102 -24 -126 l-24 -25 20
-53 c12 -29 30 -77 42 -106 l21 -54 -32 7 c-66 13 -67 14 -92 93 l-25 77 -1
-72 c0 -40 -4 -73 -9 -73 -5 0 -23 3 -40 6 l-31 7 0 218 c0 219 0 219 23 224
86 18 122 17 148 -4z"/>
<path d="M1430 1010 c0 -153 1 -160 20 -160 19 0 20 7 20 160 0 153 -1 160
-20 160 -19 0 -20 -7 -20 -160z"/>
<path d="M530 1069 c0 -60 3 -80 13 -77 8 3 13 31 15 81 2 64 0 77 -13 77 -12
0 -15 -15 -15 -81z"/>
</g>
</svg>
